<svg width="616" height="162" viewBox="0 0 616 162" fill="none" xmlns="http://www.w3.org/2000/svg">
<path d="M86.4882 7.97918C81.8279 7.96553 74.4837 8.47771 66.151 11.4897C62.972 12.6395 52.0139 16.9125 42.1655 27.5916C34.4418 35.9666 35.6735 39.3095 29.2497 46.378C24.7174 51.364 16.8416 57.6921 2.60059 61.4081C12.3542 63.4984 26.226 64.7353 36.6764 57.0571C43.8782 51.7656 44.5652 45.834 51.3913 38.9143C57.2599 32.9644 67.8351 26.1162 88.2574 24.8767C87.6679 19.2439 87.0777 13.6119 86.4882 7.97918Z" fill="url(#paint0_linear_5_1382)"/>
<path d="M86.4882 154.652C81.8279 154.665 74.4837 154.153 66.151 151.141C62.972 149.991 52.0139 145.718 42.1655 135.039C34.4418 126.664 35.6735 123.321 29.2497 116.253C24.7174 111.267 16.8416 104.938 2.60059 101.223C12.3542 99.1322 26.226 97.8954 36.6764 105.574C43.8782 110.865 44.5652 116.797 51.3913 123.716C57.2599 129.666 67.8351 136.515 88.2574 137.754C87.6679 143.386 87.0777 149.019 86.4882 154.652Z" fill="url(#paint1_linear_5_1382)"/>
<g opacity="0.3">
<path d="M29.2492 49.3113C35.673 42.2428 34.4413 38.8993 42.165 30.525C52.0135 19.8452 62.9721 15.5722 66.1505 14.423C74.4832 11.4104 81.8273 10.8982 86.4877 10.9125C86.9765 15.5754 87.464 20.2391 87.9528 24.9014C88.0567 24.8949 88.1523 24.8838 88.2563 24.8773C87.6674 19.2446 87.0772 13.6119 86.4877 7.97918C81.8273 7.96553 74.4832 8.47771 66.1505 11.4897C62.9715 12.6395 52.0135 16.9125 42.165 27.5916C34.4413 35.9666 35.673 39.3095 29.2492 46.378C24.7169 51.364 16.8411 57.6921 2.6001 61.4081C4.48764 61.8124 6.53182 62.1828 8.6722 62.4643C19.1518 58.7185 25.4092 53.5355 29.2492 49.3113Z" fill="white"/>
</g>
<g opacity="0.3">
<path d="M36.6759 108.098C43.8777 113.389 44.5647 119.321 51.3908 126.241C57.2341 132.165 67.7495 138.975 87.995 140.257C88.0827 139.422 88.1705 138.588 88.2563 137.753C67.8339 136.514 57.2594 129.666 51.3901 123.715C44.5647 116.796 43.8777 110.864 36.6759 105.573C26.2255 97.894 12.3537 99.1316 2.6001 101.222C4.46229 101.707 6.20943 102.24 7.85973 102.807C16.9445 101.498 27.9889 101.715 36.6759 108.098Z" fill="white"/>
</g>
<path d="M86.3059 7.97916C86.3683 7.97916 86.4288 7.97916 86.4886 7.97916C87.0775 13.6119 87.6676 19.2445 88.2572 24.8773C67.8348 26.1161 57.2603 32.9643 51.391 38.9149C44.5649 45.8346 43.8779 51.7663 36.6761 57.0577C30.5546 61.5562 23.2599 62.9947 16.3045 62.9947C11.3881 62.9947 6.63996 62.2752 2.60034 61.4094C16.8414 57.6935 24.7172 51.3652 29.2495 46.3793C35.6732 39.3107 34.4415 35.9673 42.1652 27.5929C52.0137 16.9131 62.9723 12.6401 66.1507 11.491C74.3762 8.51601 81.6378 7.97916 86.3059 7.97916ZM86.3059 5.37924C79.0749 5.37924 71.996 6.61226 65.2681 9.04513C59.9246 10.9775 49.5724 15.7263 40.2543 25.8295C35.9657 30.4808 34.229 33.7781 32.6983 36.6861C31.3307 39.2802 30.1517 41.5206 27.3255 44.6301C21.2853 51.2768 12.7452 56.075 1.94451 58.8933C0.779098 59.1975 -0.0242777 60.2615 0.0010715 61.4659C0.0277206 62.6703 0.878545 63.6986 2.05631 63.9508C7.14304 65.0414 11.9379 65.5939 16.3051 65.5939C25.0279 65.5939 32.3986 63.4262 38.2166 59.1526C42.6189 55.917 44.86 52.3792 47.0258 48.9578C48.6904 46.3286 50.4115 43.609 53.2428 40.7394C60.9945 32.8811 72.8273 28.4171 88.4151 27.4714C89.1236 27.4291 89.7827 27.0989 90.2409 26.5575C90.7004 26.0167 90.9175 25.3115 90.8441 24.6062L89.9595 16.1475L89.0761 7.70812C88.9377 6.38736 87.8256 5.3825 86.4977 5.3786L86.3059 5.37924Z" fill="#442200"/>
<path d="M16.3047 99.636C23.2601 99.636 30.5548 101.074 36.6763 105.573C43.8781 110.864 44.5651 116.796 51.3912 123.716C57.2598 129.666 67.835 136.514 88.2574 137.753C87.6685 143.386 87.0783 149.019 86.4888 154.651C86.429 154.651 86.3679 154.651 86.3061 154.651C81.638 154.651 74.3764 154.115 66.1516 151.141C62.9725 149.991 52.0145 145.718 42.166 135.039C34.4423 126.664 35.674 123.321 29.2503 116.253C24.718 111.267 16.8422 104.938 2.60115 101.223C6.64012 100.356 11.3882 99.6366 16.3047 99.636ZM16.3073 97.036C11.9374 97.0367 7.14256 97.5898 2.05582 98.6792C0.877407 98.932 0.0272324 99.9603 0.00058322 101.164C-0.024766 102.368 0.778609 103.432 1.94402 103.737C12.7447 106.555 21.2848 111.354 27.3264 118C30.1512 121.109 31.3302 123.349 32.6978 125.944C34.2285 128.853 35.9652 132.149 40.2551 136.8C49.5719 146.904 59.9248 151.653 65.2676 153.585C71.9962 156.017 79.0744 157.251 86.3055 157.251H86.4959C87.8238 157.247 88.9359 156.242 89.0744 154.921L89.959 146.463L90.8423 138.023C90.9158 137.318 90.6987 136.613 90.2391 136.072C89.7809 135.53 89.1218 135.2 88.4133 135.158C72.8255 134.212 60.992 129.748 53.241 121.89C50.4097 119.02 48.6886 116.301 47.024 113.672C44.8582 110.25 42.6178 106.712 38.2148 103.477C32.3981 99.2037 25.0274 97.036 16.3073 97.036Z" fill="#442200"/>
<path d="M529.511 7.97917C534.172 7.96552 541.516 8.4777 549.849 11.4897C553.028 12.6395 563.986 16.9125 573.834 27.5916C581.558 35.9666 580.326 39.3095 586.75 46.378C591.282 51.364 599.158 57.6921 613.399 61.4081C603.645 63.4984 589.774 64.7353 579.323 57.0571C572.121 51.7656 571.434 45.834 564.608 38.9143C558.74 32.9644 548.165 26.1162 527.742 24.8766C528.332 19.2439 528.922 13.6119 529.511 7.97917Z" fill="url(#paint2_linear_5_1382)"/>
<path d="M529.511 154.652C534.172 154.665 541.516 154.153 549.849 151.141C553.028 149.991 563.986 145.718 573.834 135.039C581.558 126.664 580.326 123.321 586.75 116.253C591.282 111.267 599.158 104.938 613.399 101.223C603.645 99.1322 589.774 97.8954 579.323 105.574C572.121 110.865 571.434 116.797 564.608 123.716C558.74 129.666 548.165 136.515 527.742 137.754C528.332 143.386 528.922 149.019 529.511 154.652Z" fill="url(#paint3_linear_5_1382)"/>
<g opacity="0.3">
<path d="M586.75 49.3113C580.326 42.2428 581.558 38.8993 573.834 30.525C563.986 19.8452 553.027 15.5722 549.849 14.423C541.516 11.4104 534.172 10.8982 529.512 10.9125C529.023 15.5754 528.536 20.2391 528.047 24.9014C527.943 24.8949 527.847 24.8838 527.743 24.8773C528.332 19.2446 528.922 13.6119 529.512 7.97917C534.172 7.96552 541.516 8.4777 549.849 11.4897C553.028 12.6395 563.986 16.9125 573.834 27.5916C581.558 35.9666 580.326 39.3095 586.75 46.378C591.283 51.364 599.158 57.6921 613.399 61.4081C611.512 61.8123 609.468 62.1828 607.327 62.4643C596.848 58.7184 590.59 53.5355 586.75 49.3113Z" fill="white"/>
</g>
<g opacity="0.3">
<path d="M579.324 108.098C572.122 113.389 571.435 119.321 564.609 126.241C558.765 132.165 548.25 138.975 528.004 140.257C527.917 139.422 527.829 138.588 527.743 137.753C548.166 136.514 558.74 129.666 564.609 123.715C571.435 116.795 572.122 110.863 579.324 105.572C589.775 97.8933 603.646 99.1309 613.4 101.221C611.538 101.707 609.791 102.239 608.14 102.806C599.055 101.498 588.011 101.715 579.324 108.098Z" fill="white"/>
</g>
<path d="M529.693 7.97914C534.362 7.97914 541.623 8.51602 549.848 11.4897C553.027 12.6395 563.985 16.9124 573.834 27.5916C581.557 35.9666 580.326 39.3094 586.749 46.378C591.282 51.364 599.157 57.6921 613.398 61.408C609.359 62.2738 604.611 62.9934 599.694 62.9934C592.739 62.9934 585.444 61.555 579.323 57.0564C572.121 51.765 571.434 45.8333 564.608 38.9136C558.739 32.9637 548.164 26.1155 527.742 24.876C528.33 19.2433 528.921 13.6105 529.51 7.97779C529.57 7.97909 529.631 7.97914 529.693 7.97914ZM529.693 5.37922H529.503C528.175 5.38312 527.063 6.38798 526.925 7.70874L526.041 16.1481L525.157 24.6069C525.083 25.3122 525.3 26.0173 525.76 26.5581C526.218 27.0996 526.877 27.4298 527.586 27.472C543.173 28.4177 555.007 32.8818 562.758 40.74C565.589 43.6097 567.31 46.3292 568.975 48.9584C571.141 52.3799 573.381 55.9177 577.784 59.1533C583.602 63.4269 590.973 65.5946 599.696 65.5946C604.063 65.5946 608.858 65.0415 613.944 63.9515C615.123 63.6986 615.973 62.6703 616 61.4666C616.025 60.2622 615.222 59.1981 614.056 58.894C603.255 56.0756 594.715 51.2768 588.674 44.6308C585.849 41.5219 584.67 39.2815 583.302 36.6868C581.772 33.7781 580.035 30.4814 575.745 25.8302C566.428 15.7269 556.075 10.9775 550.733 9.04575C544.003 6.61223 536.924 5.37922 529.693 5.37922Z" fill="#442200"/>
<path d="M599.694 99.636C604.611 99.636 609.359 100.355 613.398 101.221C599.157 104.937 591.281 111.265 586.749 116.251C580.325 123.32 581.557 126.663 573.833 135.038C563.985 145.717 553.026 149.99 549.848 151.14C541.623 154.113 534.361 154.65 529.693 154.65C529.631 154.65 529.57 154.65 529.511 154.65C528.922 149.017 528.332 143.385 527.742 137.752C548.164 136.513 558.739 129.665 564.608 123.714C571.434 116.795 572.121 110.863 579.323 105.572C585.444 101.074 592.739 99.636 599.694 99.636ZM599.694 97.036C590.971 97.036 583.601 99.2037 577.783 103.477C573.38 106.713 571.139 110.251 568.974 113.672C567.309 116.301 565.588 119.021 562.756 121.891C555.005 129.749 543.172 134.213 527.584 135.159C526.876 135.201 526.217 135.531 525.758 136.072C525.299 136.613 525.082 137.318 525.155 138.024L526.038 146.464L526.923 154.922C527.062 156.243 528.174 157.247 529.502 157.251H529.692C536.923 157.251 544.002 156.018 550.73 153.585C556.073 151.653 566.426 146.904 575.744 136.801C580.032 132.15 581.769 128.852 583.3 125.944C584.667 123.35 585.846 121.11 588.672 118C594.713 111.354 603.253 106.556 614.053 103.737C615.219 103.433 616.022 102.369 615.997 101.165C615.97 99.9603 615.119 98.932 613.942 98.6798C608.856 97.5891 604.061 97.036 599.694 97.036Z" fill="#442200"/>
<path d="M524.254 127.144C549.869 127.144 570.633 106.38 570.633 80.7651C570.633 55.1505 549.869 34.3858 524.254 34.3858C498.64 34.3858 477.875 55.1505 477.875 80.7651C477.875 106.38 498.64 127.144 524.254 127.144Z" fill="url(#paint4_linear_5_1382)"/>
<path opacity="0.3" d="M524.254 37.2366C499.121 37.2366 478.708 57.241 477.947 82.1905C477.932 81.7127 477.875 81.246 477.875 80.7651C477.875 55.1507 498.64 34.3858 524.254 34.3858C549.869 34.3858 570.634 55.1507 570.634 80.7651C570.634 81.246 570.577 81.7127 570.562 82.1905C569.801 57.2417 549.388 37.2366 524.254 37.2366Z" fill="white"/>
<path d="M524.255 34.3858C549.869 34.3858 570.634 55.15 570.634 80.7651C570.634 106.379 549.869 127.144 524.255 127.144C498.64 127.144 477.875 106.379 477.875 80.7651C477.875 55.15 498.64 34.3858 524.255 34.3858ZM524.255 31.7859C497.247 31.7859 475.275 53.7584 475.275 80.7651C475.275 107.772 497.247 129.744 524.255 129.744C551.262 129.744 573.234 107.772 573.234 80.7651C573.234 53.7584 551.262 31.7859 524.255 31.7859Z" fill="#442200"/>
<path d="M91.745 127.144C117.36 127.144 138.124 106.38 138.124 80.7651C138.124 55.1505 117.36 34.3858 91.745 34.3858C66.1304 34.3858 45.3657 55.1505 45.3657 80.7651C45.3657 106.38 66.1304 127.144 91.745 127.144Z" fill="url(#paint5_linear_5_1382)"/>
<path opacity="0.3" d="M91.745 37.2366C116.878 37.2366 137.292 57.241 138.052 82.1905C138.067 81.7127 138.124 81.246 138.124 80.7651C138.124 55.1507 117.359 34.3858 91.745 34.3858C66.1306 34.3858 45.3657 55.1507 45.3657 80.7651C45.3657 81.246 45.4229 81.7127 45.4379 82.1905C46.1983 57.2417 66.6116 37.2366 91.745 37.2366Z" fill="white"/>
<path d="M91.7458 34.3858C117.36 34.3858 138.124 55.15 138.124 80.7651C138.124 106.379 117.361 127.144 91.7458 127.144C66.1301 127.144 45.3665 106.379 45.3665 80.7651C45.3659 55.15 66.1301 34.3858 91.7458 34.3858ZM91.7458 31.7859C64.7385 31.7859 42.7666 53.7584 42.7666 80.7651C42.7666 107.772 64.7391 129.744 91.7458 129.744C118.753 129.744 140.724 107.772 140.724 80.7651C140.724 53.7584 118.753 31.7859 91.7458 31.7859Z" fill="#442200"/>
<path d="M524.38 21.3862H91.6196V140.144H524.38V21.3862Z" fill="url(#paint6_linear_5_1382)"/>
<path opacity="0.3" d="M511.38 34.3858V127.144H104.619V34.3858H511.38ZM524.38 21.3862H91.6196V140.144H524.38L524.38 21.3862Z" fill="black"/>
<path d="M530.879 146.644H85.1206V14.8864H530.88L530.879 146.644ZM98.1202 133.645H517.88V27.886H98.1202V133.645Z" fill="url(#paint7_linear_5_1382)"/>
<g opacity="0.3">
<path d="M517.88 133.645H98.1201V136.245H517.88V133.645Z" fill="white"/>
<path d="M530.88 14.8864H85.1206V17.4864H530.88V14.8864Z" fill="white"/>
</g>
<path d="M530.879 14.8864V146.644H85.1204V14.8864H530.879ZM98.12 133.645H517.88V27.886H98.12V133.645ZM533.479 12.2865H530.879H85.1204H82.5205V14.8864V146.644V149.244H85.1204H530.879H533.479V146.644V14.8864L533.479 12.2865ZM100.72 30.4859H515.28V131.045H100.72V30.4859Z" fill="#442200"/>
<path d="M91.7451 108.442C107.031 108.442 119.422 96.0505 119.422 80.7651C119.422 65.4796 107.031 53.0884 91.7451 53.0884C76.4597 53.0884 64.0684 65.4796 64.0684 80.7651C64.0684 96.0505 76.4597 108.442 91.7451 108.442Z" fill="url(#paint8_linear_5_1382)"/>
<path opacity="0.3" d="M91.745 55.9404C106.548 55.9404 118.602 67.5725 119.35 82.1912C119.374 81.7161 119.421 81.2468 119.421 80.7658C119.421 65.4802 107.031 53.089 91.745 53.089C76.4588 53.089 64.0688 65.4802 64.0688 80.7658C64.0688 81.2468 64.1156 81.7161 64.1397 82.1912C64.8878 67.5725 76.941 55.9404 91.745 55.9404Z" fill="white"/>
<path d="M91.7456 53.0883C107.03 53.0883 119.422 65.4795 119.422 80.7651C119.422 96.0506 107.03 108.441 91.7456 108.441C76.4594 108.441 64.0682 96.0506 64.0682 80.7651C64.0682 65.4795 76.4594 53.0883 91.7456 53.0883ZM91.7456 50.4884C75.0502 50.4884 61.4683 64.0703 61.4683 80.7651C61.4683 97.4598 75.0502 111.041 91.7456 111.041C108.44 111.041 122.022 97.4591 122.022 80.7651C122.022 64.071 108.439 50.4884 91.7456 50.4884Z" fill="#442200"/>
<path d="M91.7448 96.1969C100.268 96.1969 107.177 89.2878 107.177 80.7651C107.177 72.2423 100.268 65.3333 91.7448 65.3333C83.222 65.3333 76.313 72.2423 76.313 80.7651C76.313 89.2878 83.222 96.1969 91.7448 96.1969Z" fill="url(#paint9_linear_5_1382)"/>
<path opacity="0.3" d="M91.7448 69.2332C98.1035 69.2332 103.277 74.4063 103.277 80.7651C103.277 87.1238 98.1035 92.297 91.7448 92.297C85.386 92.297 80.2129 87.1238 80.2129 80.7651C80.2129 74.4063 85.386 69.2332 91.7448 69.2332ZM91.7448 65.3333C83.2216 65.3333 76.313 72.2425 76.313 80.7651C76.313 89.2876 83.2216 96.1969 91.7448 96.1969C100.268 96.1969 107.177 89.2876 107.177 80.7651C107.177 72.2425 100.268 65.3333 91.7448 65.3333Z" fill="black"/>
<path opacity="0.2" d="M76.313 80.7651C76.313 89.2876 83.2216 96.1969 91.7448 96.1969C100.267 96.1969 107.177 89.2876 107.177 80.7651H76.313Z" fill="black"/>
<path d="M524.254 108.442C539.539 108.442 551.931 96.0505 551.931 80.7651C551.931 65.4796 539.539 53.0884 524.254 53.0884C508.968 53.0884 496.577 65.4796 496.577 80.7651C496.577 96.0505 508.968 108.442 524.254 108.442Z" fill="url(#paint10_linear_5_1382)"/>
<path opacity="0.3" d="M524.254 55.9404C509.451 55.9404 497.397 67.5725 496.649 82.1912C496.625 81.7161 496.578 81.2468 496.578 80.7658C496.578 65.4802 508.969 53.089 524.254 53.089C539.54 53.089 551.93 65.4802 551.93 80.7658C551.93 81.2468 551.884 81.7161 551.86 82.1912C551.111 67.5725 539.058 55.9404 524.254 55.9404Z" fill="white"/>
<path d="M524.255 53.0883C539.54 53.0883 551.931 65.4795 551.931 80.7651C551.931 96.0506 539.539 108.441 524.255 108.441C508.969 108.441 496.577 96.0506 496.577 80.7651C496.577 65.4795 508.969 53.0883 524.255 53.0883ZM524.255 50.4884C507.559 50.4884 493.978 64.0703 493.978 80.7651C493.978 97.4598 507.559 111.041 524.255 111.041C540.949 111.041 554.531 97.4591 554.531 80.7651C554.531 64.071 540.948 50.4884 524.255 50.4884Z" fill="#442200"/>
<path d="M524.254 96.1969C532.777 96.1969 539.686 89.2878 539.686 80.7651C539.686 72.2423 532.777 65.3333 524.254 65.3333C515.731 65.3333 508.822 72.2423 508.822 80.7651C508.822 89.2878 515.731 96.1969 524.254 96.1969Z" fill="url(#paint11_linear_5_1382)"/>
<path opacity="0.3" d="M524.254 69.2332C530.613 69.2332 535.786 74.4063 535.786 80.7651C535.786 87.1238 530.613 92.297 524.254 92.297C517.895 92.297 512.722 87.1238 512.722 80.7651C512.722 74.4063 517.895 69.2332 524.254 69.2332ZM524.254 65.3333C515.731 65.3333 508.822 72.2425 508.822 80.7651C508.822 89.2876 515.731 96.1969 524.254 96.1969C532.777 96.1969 539.686 89.2876 539.686 80.7651C539.686 72.2425 532.777 65.3333 524.254 65.3333Z" fill="black"/>
<path opacity="0.2" d="M508.822 80.7651C508.822 89.2876 515.731 96.1969 524.254 96.1969C532.776 96.1969 539.686 89.2876 539.686 80.7651H508.822Z" fill="black"/>
<path d="M91.6194 40.1726C101.995 40.1726 110.406 31.7616 110.406 21.3862C110.406 11.0108 101.995 2.5999 91.6194 2.5999C81.2439 2.5999 72.833 11.0108 72.833 21.3862C72.833 31.7616 81.2439 40.1726 91.6194 40.1726Z" fill="url(#paint12_linear_5_1382)"/>
<path opacity="0.3" d="M91.6195 4.53556C101.668 4.53556 109.85 12.4315 110.357 22.354C110.373 22.0317 110.405 21.7132 110.405 21.3862C110.405 11.0106 101.995 2.5999 91.6189 2.5999C81.2426 2.5999 72.8325 11.0113 72.8325 21.3862C72.8325 21.7125 72.8644 22.031 72.8806 22.354C73.3889 12.4315 81.5708 4.53556 91.6195 4.53556Z" fill="white"/>
<path d="M91.6193 2.59992C101.994 2.59992 110.405 11.0106 110.405 21.3856C110.405 31.7612 101.994 40.1719 91.6193 40.1719C81.2437 40.1719 72.8323 31.7612 72.8323 21.3856C72.8323 11.0113 81.2444 2.59992 91.6193 2.59992ZM91.6193 0C79.8268 0 70.2324 9.59368 70.2324 21.3856C70.2324 33.1775 79.8274 42.7718 91.6193 42.7718C103.411 42.7718 113.005 33.1775 113.005 21.3856C113.005 9.59368 103.412 0 91.6193 0Z" fill="#442200"/>
<path d="M91.6196 31.8613C97.4048 31.8613 102.095 27.1714 102.095 21.3862C102.095 15.601 97.4048 10.9112 91.6196 10.9112C85.8344 10.9112 81.1445 15.601 81.1445 21.3862C81.1445 27.1714 85.8344 31.8613 91.6196 31.8613Z" fill="url(#paint13_linear_5_1382)"/>
<path opacity="0.3" d="M91.6196 13.5585C95.9361 13.5585 99.4473 17.0697 99.4473 21.3862C99.4473 25.7027 95.9361 29.2139 91.6196 29.2139C87.3031 29.2139 83.7919 25.7027 83.7919 21.3862C83.7919 17.0697 87.3031 13.5585 91.6196 13.5585ZM91.6196 10.9118C85.8341 10.9118 81.1445 15.6014 81.1445 21.3869C81.1445 27.1723 85.8341 31.862 91.6196 31.862C97.4051 31.862 102.095 27.1723 102.095 21.3869C102.095 15.6014 97.4051 10.9118 91.6196 10.9118Z" fill="black"/>
<path opacity="0.2" d="M81.1445 21.3862C81.1445 27.171 85.8341 31.8613 91.6196 31.8613C97.4044 31.8613 102.095 27.1717 102.095 21.3862H81.1445Z" fill="black"/>
<path d="M91.6194 158.93C101.995 158.93 110.406 150.519 110.406 140.144C110.406 129.768 101.995 121.358 91.6194 121.358C81.2439 121.358 72.833 129.768 72.833 140.144C72.833 150.519 81.2439 158.93 91.6194 158.93Z" fill="url(#paint14_linear_5_1382)"/>
<path opacity="0.3" d="M91.6195 123.293C101.668 123.293 109.85 131.189 110.357 141.112C110.373 140.789 110.405 140.471 110.405 140.144C110.405 129.768 101.995 121.358 91.6189 121.358C81.2426 121.358 72.8325 129.769 72.8325 140.144C72.8325 140.47 72.8644 140.789 72.8806 141.112C73.3889 131.189 81.5708 123.293 91.6195 123.293Z" fill="white"/>
<path d="M91.6193 121.357C101.994 121.357 110.405 129.768 110.405 140.143C110.405 150.519 101.994 158.93 91.6193 158.93C81.2437 158.93 72.8323 150.519 72.8323 140.143C72.8323 129.768 81.2444 121.357 91.6193 121.357ZM91.6193 118.757C79.8268 118.757 70.2324 128.351 70.2324 140.143C70.2324 151.935 79.8274 161.53 91.6193 161.53C103.411 161.53 113.005 151.935 113.005 140.143C113.005 128.351 103.412 118.757 91.6193 118.757Z" fill="#442200"/>
<path d="M91.6196 150.619C97.4048 150.619 102.095 145.929 102.095 140.144C102.095 134.359 97.4048 129.669 91.6196 129.669C85.8344 129.669 81.1445 134.359 81.1445 140.144C81.1445 145.929 85.8344 150.619 91.6196 150.619Z" fill="url(#paint15_linear_5_1382)"/>
<path opacity="0.3" d="M91.6196 132.316C95.9361 132.316 99.4473 135.827 99.4473 140.144C99.4473 144.46 95.9361 147.972 91.6196 147.972C87.3031 147.972 83.7919 144.46 83.7919 140.144C83.7919 135.827 87.3031 132.316 91.6196 132.316ZM91.6196 129.669C85.8341 129.669 81.1445 134.358 81.1445 140.144C81.1445 145.929 85.8341 150.619 91.6196 150.619C97.4051 150.619 102.095 145.929 102.095 140.144C102.095 134.358 97.4051 129.669 91.6196 129.669Z" fill="black"/>
<path opacity="0.2" d="M81.1445 140.144C81.1445 145.929 85.8341 150.619 91.6196 150.619C97.4044 150.619 102.095 145.929 102.095 140.144H81.1445Z" fill="black"/>
<path d="M524.38 40.1726C534.755 40.1726 543.166 31.7616 543.166 21.3862C543.166 11.0108 534.755 2.5999 524.38 2.5999C514.004 2.5999 505.593 11.0108 505.593 21.3862C505.593 31.7616 514.004 40.1726 524.38 40.1726Z" fill="url(#paint16_linear_5_1382)"/>
<path opacity="0.3" d="M524.38 4.53556C534.428 4.53556 542.61 12.4315 543.117 22.354C543.134 22.0317 543.165 21.7132 543.165 21.3862C543.165 11.0106 534.755 2.5999 524.379 2.5999C514.004 2.5999 505.593 11.0113 505.593 21.3862C505.593 21.7125 505.625 22.031 505.641 22.354C506.15 12.4315 514.332 4.53556 524.38 4.53556Z" fill="white"/>
<path d="M524.38 2.59992C534.754 2.59992 543.166 11.0106 543.166 21.3856C543.166 31.7612 534.754 40.1719 524.38 40.1719C514.004 40.1719 505.593 31.7612 505.593 21.3856C505.593 11.0113 514.004 2.59992 524.38 2.59992ZM524.38 0C512.588 0 502.993 9.59368 502.993 21.3856C502.993 33.1775 512.588 42.7718 524.38 42.7718C536.173 42.7718 545.766 33.1775 545.766 21.3856C545.766 9.59368 536.173 0 524.38 0Z" fill="#442200"/>
<path d="M524.38 31.8613C530.165 31.8613 534.855 27.1714 534.855 21.3862C534.855 15.601 530.165 10.9112 524.38 10.9112C518.595 10.9112 513.905 15.601 513.905 21.3862C513.905 27.1714 518.595 31.8613 524.38 31.8613Z" fill="url(#paint17_linear_5_1382)"/>
<path opacity="0.3" d="M524.38 13.5585C528.696 13.5585 532.208 17.0697 532.208 21.3862C532.208 25.7027 528.696 29.2139 524.38 29.2139C520.063 29.2139 516.552 25.7027 516.552 21.3862C516.552 17.0697 520.064 13.5585 524.38 13.5585ZM524.38 10.9118C518.594 10.9118 513.905 15.6014 513.905 21.3869C513.905 27.1723 518.594 31.862 524.38 31.862C530.165 31.862 534.855 27.1723 534.855 21.3869C534.855 15.6014 530.165 10.9118 524.38 10.9118Z" fill="black"/>
<path opacity="0.2" d="M513.905 21.3862C513.905 27.171 518.595 31.8613 524.38 31.8613C530.165 31.8613 534.855 27.1717 534.855 21.3862H513.905Z" fill="black"/>
<path d="M524.38 158.93C534.755 158.93 543.166 150.519 543.166 140.144C543.166 129.768 534.755 121.358 524.38 121.358C514.004 121.358 505.593 129.768 505.593 140.144C505.593 150.519 514.004 158.93 524.38 158.93Z" fill="url(#paint18_linear_5_1382)"/>
<path opacity="0.3" d="M524.38 123.293C534.428 123.293 542.61 131.189 543.117 141.112C543.134 140.789 543.165 140.471 543.165 140.144C543.165 129.768 534.755 121.358 524.379 121.358C514.004 121.358 505.593 129.769 505.593 140.144C505.593 140.47 505.625 140.789 505.641 141.112C506.15 131.189 514.332 123.293 524.38 123.293Z" fill="white"/>
<path d="M524.38 121.357C534.754 121.357 543.166 129.768 543.166 140.143C543.166 150.519 534.754 158.93 524.38 158.93C514.004 158.93 505.593 150.519 505.593 140.143C505.593 129.768 514.004 121.357 524.38 121.357ZM524.38 118.757C512.588 118.757 502.993 128.351 502.993 140.143C502.993 151.935 512.588 161.53 524.38 161.53C536.173 161.53 545.766 151.935 545.766 140.143C545.766 128.351 536.173 118.757 524.38 118.757Z" fill="#442200"/>
<path d="M524.38 150.619C530.165 150.619 534.855 145.929 534.855 140.144C534.855 134.359 530.165 129.669 524.38 129.669C518.595 129.669 513.905 134.359 513.905 140.144C513.905 145.929 518.595 150.619 524.38 150.619Z" fill="url(#paint19_linear_5_1382)"/>
<path opacity="0.3" d="M524.38 132.316C528.696 132.316 532.208 135.827 532.208 140.144C532.208 144.46 528.696 147.972 524.38 147.972C520.063 147.972 516.552 144.46 516.552 140.144C516.552 135.827 520.064 132.316 524.38 132.316ZM524.38 129.669C518.594 129.669 513.905 134.358 513.905 140.144C513.905 145.929 518.594 150.619 524.38 150.619C530.165 150.619 534.855 145.929 534.855 140.144C534.855 134.358 530.165 129.669 524.38 129.669Z" fill="black"/>
<path opacity="0.2" d="M513.905 140.144C513.905 145.929 518.595 150.619 524.38 150.619C530.165 150.619 534.855 145.929 534.855 140.144H513.905Z" fill="black"/>
<path d="M206.226 65.2559L213.657 88.6142H213.942L221.388 65.2559H228.594L217.996 96H209.619L199.006 65.2559H206.226ZM238.794 65.2559V96H232.294V65.2559H238.794ZM256.452 65.2559H262.877V86.6927C262.877 88.6743 262.432 90.3956 261.541 91.8568C260.66 93.3179 259.434 94.4438 257.863 95.2344C256.292 96.025 254.466 96.4203 252.384 96.4203C250.532 96.4203 248.851 96.0951 247.34 95.4446C245.839 94.784 244.648 93.7833 243.767 92.4422C242.886 91.0912 242.451 89.3948 242.461 87.3532H248.931C248.951 88.1639 249.116 88.8594 249.427 89.4399C249.747 90.0103 250.182 90.4506 250.733 90.7609C251.293 91.0611 251.954 91.2112 252.714 91.2112C253.515 91.2112 254.19 91.0411 254.741 90.7008C255.301 90.3506 255.727 89.8402 256.017 89.1696C256.307 88.4991 256.452 87.6735 256.452 86.6927V65.2559ZM273.55 96H266.585L277.198 65.2559H285.575L296.173 96H289.208L281.507 72.2814H281.267L273.55 96ZM273.115 83.9155H289.568V88.9895H273.115V83.9155ZM294.935 65.2559H302.215L309.226 78.4963H309.526L316.537 65.2559H323.817L312.604 85.1315V96H306.149V85.1315L294.935 65.2559ZM327.368 96V65.2559H339.497C341.829 65.2559 343.816 65.7012 345.457 66.5919C347.098 67.4726 348.349 68.6986 349.21 70.2698C350.08 71.8311 350.516 73.6325 350.516 75.6741C350.516 77.7157 350.075 79.5171 349.195 81.0783C348.314 82.6395 347.038 83.8555 345.367 84.7262C343.705 85.5968 341.694 86.0322 339.332 86.0322H331.601V80.8231H338.281C339.532 80.8231 340.563 80.6079 341.374 80.1776C342.194 79.7373 342.805 79.1318 343.205 78.3612C343.615 77.5806 343.821 76.6849 343.821 75.6741C343.821 74.6533 343.615 73.7626 343.205 73.002C342.805 72.2314 342.194 71.6359 341.374 71.2156C340.553 70.7852 339.512 70.5701 338.251 70.5701H333.868V96H327.368ZM356.487 96H349.521L360.135 65.2559H368.511L379.109 96H372.144L364.443 72.2814H364.203L356.487 96ZM356.051 83.9155H372.504V88.9895H356.051V83.9155ZM377.882 70.6151V65.2559H403.132V70.6151H393.72V96H387.295V70.6151H377.882ZM407.29 96V65.2559H413.79V77.9408H426.986V65.2559H433.471V96H426.986V83.3H413.79V96H407.29Z" fill="white"/>
<defs>
<linearGradient id="paint0_linear_5_1382" x1="45.4287" y1="62.9938" x2="45.4287" y2="7.97853" gradientUnits="userSpaceOnUse">
<stop stop-color="#BE6500"/>
<stop offset="0.5768" stop-color="#E5B84B"/>
<stop offset="1" stop-color="#FFF17F"/>
</linearGradient>
<linearGradient id="paint1_linear_5_1382" x1="45.4287" y1="154.652" x2="45.4287" y2="99.6366" gradientUnits="userSpaceOnUse">
<stop stop-color="#BE6500"/>
<stop offset="0.5768" stop-color="#E5B84B"/>
<stop offset="1" stop-color="#FFF17F"/>
</linearGradient>
<linearGradient id="paint2_linear_5_1382" x1="570.571" y1="62.9938" x2="570.571" y2="7.97852" gradientUnits="userSpaceOnUse">
<stop stop-color="#BE6500"/>
<stop offset="0.5768" stop-color="#E5B84B"/>
<stop offset="1" stop-color="#FFF17F"/>
</linearGradient>
<linearGradient id="paint3_linear_5_1382" x1="570.571" y1="154.652" x2="570.571" y2="99.6366" gradientUnits="userSpaceOnUse">
<stop stop-color="#BE6500"/>
<stop offset="0.5768" stop-color="#E5B84B"/>
<stop offset="1" stop-color="#FFF17F"/>
</linearGradient>
<linearGradient id="paint4_linear_5_1382" x1="524.254" y1="127.144" x2="524.254" y2="34.3856" gradientUnits="userSpaceOnUse">
<stop stop-color="#BE6500"/>
<stop offset="0.1734" stop-color="#C67711"/>
<stop offset="0.5225" stop-color="#DDA73C"/>
<stop offset="1" stop-color="#FFF17F"/>
</linearGradient>
<linearGradient id="paint5_linear_5_1382" x1="91.7449" y1="127.144" x2="91.7449" y2="34.3856" gradientUnits="userSpaceOnUse">
<stop stop-color="#BE6500"/>
<stop offset="0.1734" stop-color="#C67711"/>
<stop offset="0.5225" stop-color="#DDA73C"/>
<stop offset="1" stop-color="#FFF17F"/>
</linearGradient>
<linearGradient id="paint6_linear_5_1382" x1="308" y1="140.144" x2="308" y2="21.3862" gradientUnits="userSpaceOnUse">
<stop stop-color="#960068"/>
<stop offset="1" stop-color="#960068"/>
</linearGradient>
<linearGradient id="paint7_linear_5_1382" x1="85.1204" y1="80.7652" x2="530.879" y2="80.7652" gradientUnits="userSpaceOnUse">
<stop stop-color="#BE6500"/>
<stop offset="0.3145" stop-color="#E5B84B"/>
<stop offset="0.5452" stop-color="#FFF17F"/>
<stop offset="0.9944" stop-color="#DE9100"/>
</linearGradient>
<linearGradient id="paint8_linear_5_1382" x1="91.7451" y1="108.442" x2="91.7451" y2="53.0884" gradientUnits="userSpaceOnUse">
<stop stop-color="#BE6500"/>
<stop offset="0.1734" stop-color="#C67711"/>
<stop offset="0.5225" stop-color="#DDA73C"/>
<stop offset="1" stop-color="#FFF17F"/>
</linearGradient>
<linearGradient id="paint9_linear_5_1382" x1="91.7447" y1="96.1968" x2="91.7447" y2="65.3332" gradientUnits="userSpaceOnUse">
<stop stop-color="#960068"/>
<stop offset="0.2498" stop-color="#A80074"/>
<stop offset="0.7272" stop-color="#C50088"/>
<stop offset="1" stop-color="#D00090"/>
</linearGradient>
<linearGradient id="paint10_linear_5_1382" x1="524.254" y1="108.442" x2="524.254" y2="53.0884" gradientUnits="userSpaceOnUse">
<stop stop-color="#BE6500"/>
<stop offset="0.1734" stop-color="#C67711"/>
<stop offset="0.5225" stop-color="#DDA73C"/>
<stop offset="1" stop-color="#FFF17F"/>
</linearGradient>
<linearGradient id="paint11_linear_5_1382" x1="524.254" y1="96.1968" x2="524.254" y2="65.3332" gradientUnits="userSpaceOnUse">
<stop stop-color="#960068"/>
<stop offset="0.2498" stop-color="#A80074"/>
<stop offset="0.7272" stop-color="#C50088"/>
<stop offset="1" stop-color="#D00090"/>
</linearGradient>
<linearGradient id="paint12_linear_5_1382" x1="91.6192" y1="40.1727" x2="91.6192" y2="2.59997" gradientUnits="userSpaceOnUse">
<stop stop-color="#BE6500"/>
<stop offset="0.1734" stop-color="#C67711"/>
<stop offset="0.5225" stop-color="#DDA73C"/>
<stop offset="1" stop-color="#FFF17F"/>
</linearGradient>
<linearGradient id="paint13_linear_5_1382" x1="91.6194" y1="31.8611" x2="91.6194" y2="10.9115" gradientUnits="userSpaceOnUse">
<stop stop-color="#960068"/>
<stop offset="0.2498" stop-color="#A80074"/>
<stop offset="0.7272" stop-color="#C50088"/>
<stop offset="1" stop-color="#D00090"/>
</linearGradient>
<linearGradient id="paint14_linear_5_1382" x1="91.6192" y1="158.93" x2="91.6192" y2="121.357" gradientUnits="userSpaceOnUse">
<stop stop-color="#BE6500"/>
<stop offset="0.1734" stop-color="#C67711"/>
<stop offset="0.5225" stop-color="#DDA73C"/>
<stop offset="1" stop-color="#FFF17F"/>
</linearGradient>
<linearGradient id="paint15_linear_5_1382" x1="91.6194" y1="150.619" x2="91.6194" y2="129.669" gradientUnits="userSpaceOnUse">
<stop stop-color="#960068"/>
<stop offset="0.2498" stop-color="#A80074"/>
<stop offset="0.7272" stop-color="#C50088"/>
<stop offset="1" stop-color="#D00090"/>
</linearGradient>
<linearGradient id="paint16_linear_5_1382" x1="524.38" y1="40.1727" x2="524.38" y2="2.59997" gradientUnits="userSpaceOnUse">
<stop stop-color="#BE6500"/>
<stop offset="0.1734" stop-color="#C67711"/>
<stop offset="0.5225" stop-color="#DDA73C"/>
<stop offset="1" stop-color="#FFF17F"/>
</linearGradient>
<linearGradient id="paint17_linear_5_1382" x1="524.38" y1="31.8611" x2="524.38" y2="10.9115" gradientUnits="userSpaceOnUse">
<stop stop-color="#960068"/>
<stop offset="0.2498" stop-color="#A80074"/>
<stop offset="0.7272" stop-color="#C50088"/>
<stop offset="1" stop-color="#D00090"/>
</linearGradient>
<linearGradient id="paint18_linear_5_1382" x1="524.38" y1="158.93" x2="524.38" y2="121.357" gradientUnits="userSpaceOnUse">
<stop stop-color="#BE6500"/>
<stop offset="0.1734" stop-color="#C67711"/>
<stop offset="0.5225" stop-color="#DDA73C"/>
<stop offset="1" stop-color="#FFF17F"/>
</linearGradient>
<linearGradient id="paint19_linear_5_1382" x1="524.38" y1="150.619" x2="524.38" y2="129.669" gradientUnits="userSpaceOnUse">
<stop stop-color="#960068"/>
<stop offset="0.2498" stop-color="#A80074"/>
<stop offset="0.7272" stop-color="#C50088"/>
<stop offset="1" stop-color="#D00090"/>
</linearGradient>
</defs>
</svg>
