<svg width="105" height="122" viewBox="0 0 105 122" fill="none" xmlns="http://www.w3.org/2000/svg">
<path d="M104.753 24.366C104.753 37.631 93.9998 48.384 80.7338 48.384C67.4698 48.384 56.7168 37.631 56.7168 24.366C56.7168 11.101 67.4698 0.348022 80.7338 0.348022C93.9998 0.349022 104.753 11.102 104.753 24.366Z" fill="white"/>
<path opacity="0.1" d="M103.449 32.173C100.615 29.679 97.2278 27.389 93.2068 25.441C91.3298 13.128 84.7948 5.414 81.8768 0.377998C81.4978 0.359998 81.1168 0.348999 80.7338 0.348999C75.1698 0.348999 70.0498 2.247 65.9778 5.424C61.7898 9.093 59.2178 13.735 58.4948 18.042V19.074C58.0828 19.096 57.6928 19.141 57.2868 19.17C56.9178 20.844 56.7168 22.581 56.7168 24.367C56.7168 37.632 67.4698 48.385 80.7338 48.385C91.2648 48.385 100.208 41.603 103.449 32.173Z" fill="#231F20"/>
<path d="M54.3818 19.176C55.7558 10.995 63.7408 1.571 76.9608 0C79.5138 5.563 89.0038 14.922 89.5928 31.742H54.3818V19.176Z" fill="#FFB52E"/>
<path opacity="0.6" d="M76.9608 0C63.7408 1.571 55.7568 10.995 54.3818 19.176V31.742H61.3638C61.1018 12.653 70.3998 3.338 76.9608 0Z" fill="#FFB52E"/>
<path d="M58.964 17.408C31.665 13.895 15.851 24.075 8.526 35.157C0.822001 46.813 3.98801 49.87 5.28101 51.592C5.28101 51.592 3.832 54.492 1.147 56.038C2.972 57.341 3.99101 56.998 3.99101 56.998C3.99101 56.998 1.655 64.76 1.479 69.645C3.12 81.326 4.95801 86.824 4.95801 86.824C0.0680079 88.497 0 89.705 0 89.705C0 89.705 4.04801 90.02 5.53201 89.653C3.67601 91.847 2.216 96.211 2.347 97.117C3.826 98.05 6.07301 98.076 6.07301 98.076C6.07301 98.076 4.36801 102.625 6.05801 106.318C7.56601 106.153 8.427 104.703 8.427 104.703C8.427 104.703 11.159 109.752 16.79 112.667C22.42 115.582 28.4 117.617 28.4 117.617C28.4 117.617 27.548 119.431 27.675 119.831C27.803 120.231 35.15 121.044 41.014 118.927C39.951 120.066 39.435 121.236 39.435 121.236C39.977 121.366 46.344 120.976 49.843 118.276C58.957 117.89 70.361 113.188 73.687 110.028C77.01 106.868 77.363 105.04 77.363 105.04C77.363 105.04 78.613 107.686 78.828 107.434C79.042 107.181 80.203 104.301 79.863 100.585C81.295 101.764 83.17 102.17 83.17 102.17C83.619 100.714 83.355 98.9 83.355 98.9C83.355 98.9 94.989 95.749 98.069 88.368C97.072 87.15 95.208 87.148 95.208 87.148C95.923 85.087 95.675 81.212 95.675 81.212C95.675 81.212 99.355 80.908 99.523 80.307C98.459 77.904 97.045 74.628 97.045 74.628C98.94 72.937 100.574 67.567 100.574 67.567C99.535 67.108 98.768 66.575 98.768 66.575C98.768 66.575 101.915 63.046 101.898 55.367C101.866 41.828 91.511 21.597 58.964 17.408Z" fill="white"/>
<path opacity="0.1" d="M76.6521 81.906C74.2631 78.208 73.4781 75.586 73.8731 75.698C74.2661 75.81 78.5351 79.248 79.4551 80.631L76.6521 81.906Z" fill="#231F20"/>
<path d="M15.9018 91.189C13.2458 93.986 12.0848 96.8681 11.9908 97.6621C15.8228 104.122 20.5898 110.834 32.1398 114.183C46.1768 114.174 57.6858 110.277 61.3478 108.234C65.0088 106.193 65.2758 105.009 65.2758 105.009C65.2758 105.009 61.8048 96.571 56.8338 93.494C62.0968 92.291 68.7708 89.97 70.3328 87.061C71.8958 84.153 72.6608 77.651 70.4008 69.881C68.1408 62.111 62.9018 54.622 58.7728 53.141C54.6438 51.66 43.9178 52.304 29.2998 59.073C23.8078 55.468 15.5388 54.169 14.2688 54.548C12.9988 54.925 9.60476 58.4141 7.87576 64.2611C6.18176 69.9991 7.04377 79.949 7.72377 82.935C8.40477 85.921 9.37677 88.173 9.71477 88.391C10.0528 88.611 13.2038 89.438 15.9018 91.189Z" fill="#FFD1B5"/>
<path d="M58.4399 77.544C58.1929 77.148 57.7539 77.325 56.6169 77.554C55.4799 77.782 54.8749 77.748 53.6599 76.786L53.6509 76.788C52.3119 75.096 50.2899 73.957 47.9669 73.826C43.6569 73.583 39.9659 76.88 39.7239 81.19C39.6849 81.878 39.7449 82.548 39.8769 83.192L39.8679 83.197C40.0009 84.137 39.3939 84.635 38.7859 85.838C38.1779 87.041 39.0299 87.515 40.1049 87.599C41.1799 87.68 42.6689 87.969 43.8819 88.544C43.8819 88.544 43.8869 88.541 43.8899 88.54C44.8519 89.047 45.9299 89.368 47.0859 89.433C51.2779 89.669 54.8769 86.551 55.2909 82.413C55.2939 82.412 55.3029 82.407 55.3029 82.407C55.6639 80.71 56.9369 79.866 57.4899 79.244C58.0419 78.624 58.6869 77.94 58.4399 77.544Z" fill="#231F20"/>
<path d="M40.7832 83.5899C41.6632 83.1679 48.5972 79.401 53.5402 76.664C52.2012 75.044 50.2282 73.9539 47.9652 73.8269C43.6552 73.5839 39.9642 76.8809 39.7222 81.1909C39.6832 81.8789 39.7432 82.5489 39.8752 83.1929L39.8662 83.1979C39.9102 83.5089 39.8682 83.7709 39.7772 84.0269C40.0962 83.9119 40.4272 83.7609 40.7832 83.5899Z" fill="#231F20"/>
<path d="M53.8928 81.9889C53.6948 85.5049 50.6828 88.196 47.1668 87.998C43.6498 87.8 40.9578 84.7869 41.1568 81.2719C41.3548 77.7549 44.3668 75.065 47.8848 75.263C51.4018 75.461 54.0908 78.4719 53.8928 81.9889Z" fill="#FFB52E"/>
<path d="M47.8841 75.262C44.3671 75.064 41.3541 77.754 41.1561 81.271C41.1161 81.97 41.1971 82.647 41.3691 83.289C43.1541 82.352 48.1231 79.65 52.2671 77.366C51.1801 76.159 49.6351 75.361 47.8841 75.262Z" fill="#FFB52E"/>
<path d="M50.585 81.6231C50.459 83.8641 48.54 85.5791 46.299 85.4521C44.057 85.3261 42.3419 83.4061 42.4679 81.1651C42.5939 78.9231 44.514 77.2091 46.756 77.3341C48.996 77.4621 50.711 79.3811 50.585 81.6231Z" fill="#231F20"/>
<path d="M46.7562 77.335C44.5142 77.21 42.5942 78.924 42.4682 81.166C42.4402 81.669 42.5162 82.15 42.6582 82.604C44.3812 81.681 47.0112 80.253 49.6472 78.808C48.9502 77.968 47.9292 77.402 46.7562 77.335Z" fill="#231F20"/>
<path d="M52.3042 78.385C52.6642 79.268 51.7083 80.495 50.1703 81.123C48.6303 81.751 47.0913 81.542 46.7303 80.659C46.3703 79.775 47.3243 78.549 48.8643 77.92C50.4013 77.292 51.9432 77.5 52.3042 78.385Z" fill="white"/>
<path d="M36.3398 82.125C37.4118 83.085 38.4228 82.692 39.7638 82.048C41.1048 81.403 56.5608 72.962 57.4978 72.296C58.4358 71.628 56.3028 70.452 51.2768 70.144C45.8958 69.816 38.3408 72.97 36.3398 82.125Z" fill="white"/>
<path d="M33.765 79.678C33.765 79.678 33.942 79.9551 34.208 80.3711C34.479 80.7711 34.823 81.292 35.246 81.71C35.454 81.92 35.674 82.12 35.904 82.272C36.127 82.435 36.353 82.587 36.569 82.669C36.777 82.773 36.9641 82.8561 37.1011 82.8961C37.2361 82.9491 37.3161 82.9871 37.3161 82.9871L37.341 82.999C37.44 83.048 37.482 83.164 37.434 83.264C37.406 83.321 37.3521 83.3601 37.2931 83.3711C37.2931 83.3711 37.204 83.3881 37.041 83.4051C36.881 83.4161 36.643 83.448 36.361 83.397C36.08 83.362 35.7461 83.276 35.4181 83.12C35.0831 82.972 34.767 82.7331 34.488 82.4681C33.923 81.9301 33.598 81.2291 33.451 80.6981C33.312 80.1651 33.3361 79.7801 33.3361 79.7801C33.3441 79.6531 33.4531 79.5551 33.5791 79.5641C33.6551 79.5681 33.722 79.6101 33.759 79.6681L33.765 79.678Z" fill="#F2A98D"/>
<path d="M9.33804 74.9319C9.55504 74.5929 9.86104 74.795 10.673 75.11C11.485 75.424 11.932 75.4479 12.913 74.6849L12.918 74.6869C14.055 73.2679 15.645 72.4179 17.359 72.5149C20.54 72.6939 22.938 76.044 22.715 79.998C22.679 80.63 22.573 81.2349 22.418 81.8109L22.422 81.8159C22.237 82.6609 22.636 83.1719 22.968 84.3269C23.301 85.4799 22.635 85.8349 21.84 85.8099C21.044 85.7859 19.925 85.9089 18.984 86.3219C18.984 86.3219 18.98 86.3179 18.978 86.3179C18.225 86.6909 17.406 86.8829 16.552 86.8349C13.458 86.6609 11.111 83.4809 11.193 79.6669C11.191 79.6659 11.184 79.6599 11.184 79.6599C11.077 78.0789 10.223 77.1909 9.87604 76.5729C9.52704 75.9529 9.11904 75.2699 9.33804 74.9319Z" fill="#231F20"/>
<path d="M21.7148 82.0889C21.1098 81.6219 16.3768 77.54 13.0098 74.584C14.1408 73.23 15.6878 72.421 17.3588 72.515C20.5398 72.694 22.9378 76.044 22.7148 79.998C22.6788 80.63 22.5728 81.2349 22.4178 81.8109L22.4218 81.816C22.3608 82.097 22.3678 82.339 22.4098 82.581C22.1888 82.446 21.9608 82.2779 21.7148 82.0889Z" fill="#231F20"/>
<path d="M12.2559 79.409C12.0739 82.636 14.0299 85.369 16.6259 85.515C19.2219 85.661 21.4749 83.165 21.6559 79.938C21.8379 76.711 19.8799 73.977 17.2839 73.831C14.6889 73.685 12.4379 76.182 12.2559 79.409Z" fill="#FFB52E"/>
<path d="M17.284 73.831C19.88 73.977 21.838 76.712 21.656 79.938C21.62 80.578 21.498 81.1891 21.312 81.7581C20.09 80.7381 16.7 77.812 13.876 75.341C14.785 74.342 15.992 73.759 17.284 73.831Z" fill="#FFB52E"/>
<path d="M14.7139 79.383C14.5989 81.438 15.8449 83.181 17.4999 83.275C19.1539 83.368 20.5899 81.776 20.7059 79.721C20.8219 77.664 19.5739 75.921 17.9199 75.827C16.2649 75.734 14.8299 77.326 14.7139 79.383Z" fill="#231F20"/>
<path d="M17.9201 75.827C19.5741 75.92 20.8211 77.664 20.7061 79.721C20.6801 80.182 20.5791 80.614 20.4321 81.015C19.2561 80.012 17.4611 78.465 15.6631 76.902C16.2511 76.2 17.0521 75.778 17.9201 75.827Z" fill="#231F20"/>
<path d="M18.5678 79.5841C18.3678 80.1341 18.7888 81.051 19.5068 81.632C20.2268 82.214 20.9718 82.2411 21.1718 81.6901C21.3728 81.1401 20.9518 80.2221 20.2338 79.6411C19.5148 79.0591 18.7688 79.0341 18.5678 79.5841Z" fill="white"/>
<path d="M25.107 81.1651C24.233 81.9411 23.528 81.4891 22.605 80.7761C21.682 80.0641 11.14 70.9261 10.514 70.2311C9.89002 69.5341 11.563 68.6611 15.275 68.8471C19.247 69.0471 24.492 72.6281 25.107 81.1651Z" fill="white"/>
<path d="M27.2212 79.173C27.2212 79.173 27.0652 79.409 26.8322 79.763C26.5972 80.103 26.2952 80.546 25.9482 80.887C25.7752 81.06 25.5962 81.222 25.4122 81.339C25.2342 81.468 25.0552 81.585 24.8902 81.639C24.7262 81.714 24.5832 81.772 24.4782 81.796C24.3752 81.833 24.3132 81.86 24.3132 81.86L24.2932 81.869C24.2162 81.903 24.1752 82.007 24.2002 82.102C24.2152 82.156 24.2522 82.197 24.2932 82.213C24.2932 82.213 24.3572 82.237 24.4742 82.267C24.5922 82.293 24.7632 82.344 24.9742 82.324C25.1832 82.319 25.4362 82.271 25.6922 82.158C25.9512 82.054 26.2052 81.866 26.4332 81.65C26.8972 81.212 27.2022 80.604 27.3562 80.132C27.5092 79.659 27.5262 79.304 27.5262 79.304C27.5322 79.188 27.4612 79.09 27.3672 79.085C27.3122 79.082 27.2602 79.114 27.2272 79.164L27.2212 79.173Z" fill="#F2A98D"/>
<path d="M20.4232 89.286C20.4232 89.286 20.1472 89.35 19.7352 89.447C19.3342 89.549 18.8132 89.677 18.3732 89.885C18.1512 89.987 17.9372 90.099 17.7642 90.23C17.5812 90.353 17.4092 90.481 17.3022 90.618C17.1742 90.744 17.0692 90.859 17.0102 90.95C16.9412 91.033 16.8942 91.082 16.8922 91.082L16.8772 91.098C16.8182 91.159 16.7062 91.162 16.6262 91.104C16.5812 91.071 16.5552 91.023 16.5542 90.978C16.5542 90.978 16.5542 90.91 16.5672 90.79C16.5842 90.671 16.5952 90.493 16.6872 90.301C16.7652 90.108 16.8972 89.886 17.0902 89.686C17.2782 89.478 17.5432 89.305 17.8252 89.167C18.3962 88.884 19.0732 88.81 19.5682 88.828C20.0652 88.849 20.4032 88.956 20.4032 88.956C20.5152 88.991 20.5832 89.092 20.5542 89.181C20.5382 89.234 20.4892 89.272 20.4322 89.285L20.4232 89.286Z" fill="#F2A98D"/>
<path d="M23.5601 88.885C21.8021 89.249 21.6801 90.624 22.7371 91.971C23.7931 93.317 25.4291 94.067 26.4271 94.089C28.2021 94.128 30.9321 93.272 32.1201 92.041C33.1201 91.006 33.1271 89.784 31.9361 89.279C30.4571 88.652 27.4961 88.071 23.5601 88.885Z" fill="#231F20"/>
<path d="M25.2058 103.685C25.2058 103.685 27.5248 101.375 28.0878 101.44C28.6488 101.505 34.0878 104.451 34.4398 104.704C34.7928 104.957 34.4248 104.97 33.8638 104.871C33.3038 104.773 28.2578 103.323 28.1258 103.283C27.9948 103.243 25.3958 103.878 25.2588 103.921C25.1228 103.963 24.9788 103.909 25.2058 103.685Z" fill="#231F20"/>
<path opacity="0.1" d="M96.7358 90.687C96.5948 90.347 96.4488 90.004 96.2888 89.663C96.2988 88.845 96.2888 88.062 96.2658 87.304C95.6728 87.151 95.2068 87.15 95.2068 87.15C95.8748 85.221 95.7008 81.699 95.6758 81.259C94.6308 75.102 92.5898 72.08 92.3258 71.751C91.9608 71.297 89.2458 71.81 86.4608 74.478C83.6758 77.147 80.9748 81.382 79.9448 87.03C81.9898 88.746 85.0819 93.05 87.4489 97.406C90.4409 96.1 94.3688 93.905 96.7358 90.687Z" fill="#231F20"/>
<path d="M83.3539 98.901C82.3529 93.016 78.9869 84.801 76.6519 81.906C78.7519 76.563 82.2199 72.928 85.4679 70.847C88.7149 68.765 91.4789 68.787 91.7489 69.303C92.0199 69.817 94.6369 75.992 92.1819 87.643C93.2019 91.697 92.8829 95.575 92.1189 96.721C91.4969 97.653 88.7909 99.94 83.3539 98.901Z" fill="#FFD1B5"/>
<path d="M88.1369 92.909C86.4909 91.967 83.0659 90.713 83.3539 90.035C83.6419 89.358 84.7439 88.412 84.3409 87.595C83.9369 86.779 81.7449 83.996 82.1289 83.399C82.5119 82.802 88.3009 74.036 88.3059 74.836C88.3109 75.635 85.0389 82.242 85.0389 82.242C85.7099 82.782 87.8469 86.549 87.9419 87.504C88.0379 88.459 86.7269 90.433 86.7189 90.582C86.7129 90.731 88.7969 93.259 88.1369 92.909Z" fill="#F2A98D"/>
<path opacity="0.1" d="M65.3499 94.1041C65.3499 94.1041 65.5419 94.0901 65.8799 94.1081C66.2199 94.1191 66.7059 94.1541 67.2749 94.2441C67.5629 94.2801 67.8719 94.3291 68.1929 94.4051C68.5169 94.4711 68.8579 94.5481 69.2089 94.6391C69.5609 94.7241 69.9139 94.8441 70.2729 94.9651C70.6309 95.0931 71.0059 95.1881 71.3589 95.3481C72.0639 95.6681 72.7869 95.9451 73.4119 96.3221C73.7279 96.5011 74.0229 96.6951 74.3089 96.8671C74.5879 97.0471 74.8619 97.1981 75.0819 97.3951C75.9899 98.1381 76.5269 98.6851 76.5269 98.6851C76.5659 98.7251 76.5659 98.7891 76.5249 98.8291C76.4959 98.8571 76.4529 98.8651 76.4179 98.8501L76.4049 98.8451C76.4049 98.8451 75.6809 98.5501 74.6989 98.0281C74.4639 97.8841 74.1599 97.8001 73.8729 97.6621C73.5799 97.5321 73.2679 97.4081 72.9549 97.2561C72.6459 97.0971 72.3029 96.9831 71.9609 96.8521C71.6229 96.7141 71.2789 96.5751 70.9359 96.4361C70.5899 96.3001 70.2369 96.1791 69.8949 96.0511C69.5519 95.9211 69.2129 95.7931 68.8869 95.6701C68.2229 95.4541 67.6149 95.1951 67.0829 95.0131C66.8159 94.9191 66.5739 94.8261 66.3589 94.7381C66.1429 94.6631 65.9559 94.5891 65.8009 94.5271C65.4879 94.4021 65.3089 94.3311 65.3089 94.3311C65.2489 94.3081 65.2209 94.2391 65.2449 94.1791C65.2619 94.1361 65.3019 94.1101 65.3449 94.1061L65.3499 94.1041ZM66.2309 96.2541C66.1929 96.2601 66.1589 96.2831 66.1399 96.3221C66.1129 96.3811 66.1389 96.4511 66.1979 96.4791C66.1979 96.4791 66.3329 96.5421 66.5709 96.6511C66.8069 96.7551 67.1389 96.9031 67.5439 97.0651C67.9479 97.2191 68.4099 97.4271 68.9159 97.6001C69.1659 97.6921 69.4179 97.8081 69.6839 97.8991C69.9459 97.9961 70.2119 98.0971 70.4789 98.1951C70.7409 98.3001 71.0039 98.4051 71.2639 98.5091C71.5259 98.6071 71.7909 98.6891 72.0279 98.8081C72.2679 98.9201 72.5099 99.0091 72.7369 99.1041C72.9579 99.2051 73.1939 99.2611 73.3779 99.3671C74.1409 99.7411 74.7179 99.9401 74.7179 99.9401L74.7299 99.9441C74.7629 99.9551 74.8009 99.9481 74.8299 99.9241C74.8729 99.8871 74.8789 99.8221 74.8419 99.7801C74.8419 99.7801 74.4499 99.3311 73.7619 98.7351C73.5939 98.5771 73.3869 98.4541 73.1719 98.3101C72.9539 98.1731 72.7309 98.0161 72.4839 97.8741C72.0049 97.5751 71.4489 97.3581 70.9039 97.1091C70.6329 96.9831 70.3409 96.9131 70.0639 96.8131C69.7869 96.7211 69.5109 96.6331 69.2399 96.5711C68.9669 96.5051 68.7039 96.4491 68.4509 96.4041C68.2029 96.3501 67.9629 96.3181 67.7379 96.2981C67.2969 96.2391 66.9189 96.2301 66.6539 96.2341C66.3899 96.2321 66.2409 96.2531 66.2409 96.2531L66.2309 96.2541ZM67.1189 98.4051C67.0889 98.4121 67.0609 98.4311 67.0439 98.4611C67.0099 98.5191 67.0289 98.5931 67.0859 98.6271C67.0859 98.6271 67.1799 98.6821 67.3419 98.7771C67.5019 98.8651 67.7269 98.9891 68.0049 99.1181C68.5529 99.3861 69.2819 99.6911 70.0189 99.9591C70.3759 100.116 70.7589 100.225 71.0969 100.364C71.2659 100.435 71.4369 100.489 71.5969 100.548C71.7519 100.613 71.9219 100.641 72.0519 100.707C72.5969 100.936 73.0289 101.037 73.0289 101.037L73.0409 101.04C73.0679 101.047 73.0999 101.041 73.1249 101.025C73.1719 100.991 73.1839 100.925 73.1499 100.879C73.1499 100.879 72.9049 100.527 72.4349 100.077C72.3199 99.9581 72.1789 99.8621 72.0309 99.7561C71.8809 99.6531 71.7259 99.5361 71.5559 99.4291C71.2199 99.2081 70.8309 99.0451 70.4449 98.8711C70.2519 98.7851 70.0489 98.7281 69.8529 98.6631C69.6559 98.6031 69.4599 98.5411 69.2669 98.5011C68.8789 98.4251 68.5189 98.3591 68.1979 98.3531C67.8829 98.3291 67.6129 98.3431 67.4229 98.3611C67.2339 98.3761 67.1289 98.4041 67.1289 98.4041L67.1189 98.4051Z" fill="#231F20"/>
<path opacity="0.1" d="M29.149 57.187C29.149 57.187 29.145 57.038 29.137 56.756C29.14 56.472 29.098 56.067 29.132 55.532C29.183 55.001 29.183 54.326 29.302 53.595C29.354 53.226 29.409 52.833 29.466 52.418C29.541 52.007 29.652 51.582 29.75 51.133C29.928 50.23 30.258 49.292 30.553 48.281C30.926 47.298 31.282 46.241 31.816 45.219C32.277 44.163 32.902 43.147 33.517 42.106C33.85 41.601 34.211 41.109 34.561 40.606C34.897 40.093 35.288 39.618 35.697 39.158C36.105 38.698 36.482 38.209 36.914 37.777C37.354 37.35 37.792 36.925 38.227 36.503C38.646 36.065 39.14 35.718 39.603 35.348C40.073 34.987 40.522 34.612 40.992 34.279C41.48 33.975 41.96 33.676 42.43 33.384C42.904 33.1 43.351 32.796 43.837 32.589C44.794 32.154 45.659 31.664 46.521 31.359C47.379 31.045 48.175 30.788 48.874 30.552C49.583 30.347 50.221 30.236 50.734 30.111C51.766 29.894 52.356 29.77 52.356 29.77C52.421 29.757 52.484 29.798 52.498 29.863C52.51 29.922 52.477 29.981 52.421 30.001L52.41 30.005C52.41 30.005 51.847 30.208 50.862 30.562C50.372 30.741 49.765 30.917 49.098 31.193C48.439 31.497 47.704 31.849 46.892 32.198C46.081 32.552 45.279 33.09 44.393 33.57C43.512 34.062 42.698 34.762 41.781 35.36C41.348 35.695 40.935 36.072 40.503 36.433C40.077 36.802 39.627 37.152 39.241 37.58C38.838 37.988 38.43 38.4 38.023 38.813C37.621 39.232 37.275 39.705 36.897 40.147C36.125 41.022 35.505 42.017 34.84 42.951C34.265 43.946 33.645 44.894 33.18 45.889C32.657 46.854 32.281 47.846 31.859 48.762C31.526 49.71 31.154 50.595 30.937 51.448C30.679 52.291 30.491 53.074 30.326 53.772C30.14 54.47 30.085 55.075 29.982 55.58C29.905 56.087 29.876 56.509 29.839 56.785C29.808 57.065 29.791 57.214 29.791 57.214C29.772 57.39 29.613 57.518 29.437 57.499C29.274 57.481 29.152 57.345 29.149 57.187Z" fill="#231F20"/>
<path opacity="0.1" d="M26.3788 56.1C26.3788 56.1 25.7728 55.106 25.2288 53.485C24.9458 52.676 24.6978 51.705 24.5078 50.648C24.4198 50.119 24.3348 49.569 24.2878 49.007C24.2608 48.443 24.1808 47.872 24.2068 47.295C24.2048 46.146 24.2818 44.992 24.4948 43.932C24.5688 43.398 24.7058 42.893 24.8458 42.418C24.9688 41.94 25.1098 41.497 25.2818 41.1C25.4378 40.699 25.5948 40.339 25.7388 40.024C25.9058 39.719 26.0518 39.453 26.1728 39.234C26.4178 38.801 26.5678 38.563 26.5678 38.563C26.6038 38.507 26.6778 38.49 26.7348 38.526C26.7788 38.553 26.7988 38.605 26.7888 38.652L26.7868 38.664C26.7868 38.664 26.7278 38.942 26.6068 39.411C26.5438 39.644 26.4678 39.926 26.3798 40.249C26.3138 40.579 26.2618 40.955 26.1748 41.353C26.0768 41.749 26.0358 42.191 25.9718 42.652C25.8958 43.111 25.8528 43.598 25.8228 44.104C25.7698 44.606 25.7468 45.127 25.7518 45.659C25.7218 46.188 25.7398 46.726 25.7618 47.264C25.7848 48.342 25.9038 49.414 26.0098 50.423C26.0888 50.924 26.1358 51.414 26.2148 51.874C26.2918 52.336 26.3648 52.771 26.4318 53.174C26.5848 53.977 26.6948 54.657 26.8118 55.122C26.9158 55.59 26.9748 55.858 26.9748 55.858C27.0158 56.033 26.9078 56.208 26.7328 56.249C26.5918 56.28 26.4508 56.215 26.3788 56.1Z" fill="#231F20"/>
<path opacity="0.1" d="M35.1252 53.099C35.1252 53.099 35.7652 51.768 37.0852 50.032C37.7362 49.156 38.5752 48.191 39.5372 47.219C40.0232 46.739 40.5372 46.251 41.0832 45.783C41.6492 45.338 42.1812 44.833 42.7952 44.429C43.3922 44.005 43.9862 43.579 44.6112 43.215C44.9212 43.031 45.2282 42.848 45.5322 42.668C45.8482 42.508 46.1602 42.351 46.4672 42.196C46.7762 42.045 47.0782 41.897 47.3752 41.752C47.6842 41.632 47.9852 41.515 48.2792 41.4C48.8622 41.165 49.4182 40.96 49.9532 40.83C50.4802 40.68 50.9672 40.561 51.3962 40.458C51.8352 40.39 52.2172 40.33 52.5322 40.282C53.1602 40.191 53.5172 40.153 53.5172 40.153C53.5832 40.146 53.6432 40.194 53.6502 40.26C53.6552 40.314 53.6242 40.364 53.5752 40.384L53.5642 40.388C53.5642 40.388 53.2282 40.524 52.6442 40.737C52.3522 40.84 51.9982 40.965 51.5922 41.109C51.2002 41.285 50.7572 41.484 50.2752 41.7C49.7842 41.889 49.2872 42.174 48.7522 42.448C48.4862 42.585 48.2112 42.726 47.9322 42.87C47.6622 43.034 47.3872 43.201 47.1072 43.371C46.8272 43.538 46.5422 43.708 46.2532 43.88C45.9762 44.071 45.6952 44.264 45.4132 44.459C44.8332 44.823 44.2812 45.251 43.7272 45.674C42.6112 46.511 41.5662 47.438 40.5922 48.314C40.1232 48.772 39.6482 49.194 39.2262 49.625C38.7952 50.047 38.3992 50.457 38.0322 50.837C37.3102 51.604 36.6952 52.241 36.3002 52.716C35.8962 53.182 35.6652 53.449 35.6652 53.449C35.5502 53.585 35.3462 53.603 35.2092 53.487C35.0942 53.39 35.0652 53.228 35.1252 53.099Z" fill="#231F20"/>
<path opacity="0.1" d="M21.399 53.972C21.399 53.972 21.251 53.84 21.018 53.558C20.775 53.281 20.469 52.87 20.134 52.356C19.953 52.105 19.805 51.811 19.633 51.504C19.466 51.196 19.272 50.877 19.131 50.523C18.827 49.822 18.496 49.073 18.284 48.285C18.174 47.892 18.062 47.501 17.953 47.115C17.847 46.728 17.81 46.33 17.739 45.956C17.672 45.58 17.634 45.212 17.583 44.867C17.52 44.525 17.53 44.189 17.524 43.883C17.506 42.657 17.59 41.852 17.59 41.852C17.597 41.785 17.656 41.737 17.724 41.744C17.771 41.749 17.808 41.78 17.825 41.82L17.829 41.831C17.829 41.831 18.131 42.599 18.438 43.733C18.57 44.304 18.828 44.947 19.038 45.643C19.149 45.99 19.234 46.354 19.375 46.71C19.502 47.069 19.63 47.434 19.759 47.799C19.89 48.162 19.989 48.536 20.142 48.886C20.287 49.237 20.41 49.591 20.529 49.934C20.645 50.278 20.797 50.594 20.905 50.91C21.031 51.218 21.125 51.523 21.237 51.791C21.459 52.33 21.617 52.796 21.743 53.108C21.865 53.435 21.935 53.623 21.935 53.623C21.998 53.793 21.913 53.982 21.742 54.046C21.624 54.09 21.496 54.062 21.409 53.983L21.399 53.972Z" fill="#231F20"/>
<path opacity="0.1" d="M71.4409 63.6969C71.4409 63.6969 71.7399 63.7389 72.2629 63.8109C72.7769 63.9039 73.5209 63.988 74.4049 64.142C75.2869 64.3 76.3199 64.447 77.4159 64.662C78.5139 64.855 79.6839 65.062 80.8559 65.269C81.4419 65.363 82.0279 65.4569 82.6049 65.5499C83.1819 65.6439 83.7469 65.777 84.2989 65.834C84.8499 65.901 85.3809 65.9929 85.8869 66.0659C86.3929 66.1299 86.8709 66.2449 87.3149 66.2849C88.1999 66.3759 88.9429 66.489 89.4649 66.552C89.9869 66.625 90.2869 66.6799 90.2869 66.6799L90.2979 66.6819C90.3629 66.6939 90.4059 66.757 90.3949 66.823C90.3849 66.874 90.3439 66.9129 90.2939 66.9209C90.2939 66.9209 89.9939 66.9649 89.4669 67.0209C88.9399 67.0639 88.1829 67.1529 87.2689 67.2119C86.8109 67.2419 86.3209 67.223 85.7989 67.213C85.2769 67.196 84.7249 67.195 84.1569 67.164C83.0179 67.111 81.8169 66.943 80.6119 66.804C80.0099 66.726 79.4189 66.598 78.8309 66.498C78.2449 66.392 77.6659 66.2899 77.1159 66.1519C76.0109 65.8919 74.9839 65.6349 74.1199 65.3519C73.2489 65.0989 72.5419 64.812 72.0399 64.634C71.5419 64.45 71.2699 64.3179 71.2699 64.3179L71.2559 64.3109C71.0939 64.2329 71.0269 64.0389 71.1059 63.8779C71.1679 63.7469 71.3059 63.6789 71.4409 63.6969Z" fill="#231F20"/>
<path opacity="0.1" d="M75.0838 68.66C75.0838 68.66 75.2468 68.623 75.5328 68.579C75.8178 68.539 76.2238 68.482 76.7008 68.432C77.1788 68.38 77.7338 68.339 78.3278 68.331C78.6228 68.331 78.9308 68.287 79.2418 68.286C79.5528 68.279 79.8688 68.254 80.1858 68.261C80.5028 68.263 80.8198 68.264 81.1318 68.266C81.4438 68.267 81.7588 68.314 82.0498 68.283C82.6378 68.262 83.1928 68.257 83.6748 68.275C84.6358 68.299 85.3138 68.405 85.3138 68.405L85.3308 68.407C85.3978 68.418 85.4428 68.48 85.4338 68.547C85.4268 68.589 85.3988 68.623 85.3638 68.639C85.3638 68.639 84.7628 68.913 83.8088 69.191C83.3318 69.335 82.7698 69.479 82.1608 69.615C81.8538 69.693 81.5398 69.701 81.2198 69.742C80.8978 69.765 80.5718 69.789 80.2448 69.813C79.9178 69.841 79.5888 69.839 79.2678 69.853C78.9448 69.863 78.6278 69.878 78.3198 69.848C77.7058 69.812 77.1318 69.745 76.6448 69.671C76.1558 69.608 75.7568 69.51 75.4808 69.432C75.2028 69.356 75.0448 69.3 75.0448 69.3C74.8708 69.238 74.7808 69.047 74.8428 68.874C74.8788 68.764 74.9758 68.686 75.0838 68.66Z" fill="#231F20"/>
<path opacity="0.1" d="M75.4821 73.02C75.4821 73.02 75.5891 72.947 75.7841 72.839C75.9801 72.734 76.2601 72.586 76.5901 72.434C77.2561 72.131 78.1571 71.818 79.0731 71.535C79.3041 71.473 79.5371 71.4111 79.7641 71.3491C79.9921 71.2901 80.2331 71.2621 80.4401 71.1871C80.8681 71.0651 81.2781 70.9661 81.6401 70.8991C82.3601 70.7561 82.8971 70.738 82.8971 70.738L82.9111 70.7371C82.9811 70.7341 83.0401 70.789 83.0421 70.859C83.0431 70.895 83.0281 70.9281 83.0051 70.9521C83.0051 70.9521 82.6421 71.3171 82.0131 71.7481C81.7021 71.9681 81.3241 72.2031 80.9101 72.4401C80.4941 72.6681 80.0251 72.8321 79.5591 73.0111C79.3281 73.1041 79.0851 73.1691 78.8541 73.2481C78.6211 73.3251 78.3901 73.3981 78.1601 73.4391C77.7011 73.5411 77.2651 73.602 76.8901 73.639C76.1401 73.727 75.6281 73.645 75.6281 73.645L75.6221 73.6441C75.4341 73.6141 75.3061 73.438 75.3371 73.249C75.3511 73.153 75.4061 73.072 75.4821 73.02Z" fill="#231F20"/>
</svg>
