<svg width="616" height="162" viewBox="0 0 616 162" fill="none" xmlns="http://www.w3.org/2000/svg">
<path d="M86.4882 8.03829C81.8279 8.02464 74.4837 8.53682 66.151 11.5488C62.972 12.6986 52.0139 16.9716 42.1655 27.6507C34.4418 36.0257 35.6735 39.3686 29.2497 46.4371C24.7174 51.4231 16.8416 57.7512 2.60059 61.4672C12.3542 63.5575 26.226 64.7944 36.6764 57.1162C43.8782 51.8248 44.5652 45.8931 51.3913 38.9734C57.2599 33.0235 67.8351 26.1753 88.2574 24.9358C87.6679 19.303 87.0777 13.671 86.4882 8.03829Z" fill="url(#paint0_linear_5_1380)"/>
<path d="M86.4882 154.711C81.8279 154.724 74.4837 154.212 66.151 151.2C62.972 150.05 52.0139 145.777 42.1655 135.098C34.4418 126.723 35.6735 123.38 29.2497 116.312C24.7174 111.326 16.8416 104.998 2.60059 101.282C12.3542 99.1913 26.226 97.9545 36.6764 105.633C43.8782 110.924 44.5652 116.856 51.3913 123.776C57.2599 129.725 67.8351 136.574 88.2574 137.813C87.6679 143.445 87.0777 149.078 86.4882 154.711Z" fill="url(#paint1_linear_5_1380)"/>
<g opacity="0.3">
<path d="M29.2492 49.3704C35.673 42.3019 34.4413 38.9584 42.165 30.5841C52.0135 19.9043 62.9721 15.6313 66.1505 14.4821C74.4832 11.4695 81.8273 10.9573 86.4877 10.9716C86.9765 15.6346 87.464 20.2982 87.9528 24.9605C88.0567 24.954 88.1523 24.9429 88.2563 24.9364C87.6674 19.3037 87.0772 13.671 86.4877 8.03829C81.8273 8.02464 74.4832 8.53682 66.1505 11.5488C62.9715 12.6986 52.0135 16.9716 42.165 27.6507C34.4413 36.0257 35.673 39.3686 29.2492 46.4371C24.7169 51.4231 16.8411 57.7512 2.6001 61.4672C4.48764 61.8715 6.53182 62.2419 8.6722 62.5234C19.1518 58.7776 25.4092 53.5947 29.2492 49.3704Z" fill="white"/>
</g>
<g opacity="0.3">
<path d="M36.6759 108.157C43.8777 113.449 44.5647 119.38 51.3908 126.3C57.2341 132.224 67.7495 139.034 87.995 140.316C88.0827 139.482 88.1705 138.647 88.2563 137.812C67.8339 136.573 57.2594 129.725 51.3901 123.774C44.5647 116.855 43.8777 110.923 36.6759 105.632C26.2255 97.9531 12.3537 99.1907 2.6001 101.281C4.46229 101.767 6.20943 102.299 7.85973 102.866C16.9445 101.557 27.9889 101.774 36.6759 108.157Z" fill="white"/>
</g>
<path d="M86.3059 8.03826C86.3683 8.03826 86.4288 8.03826 86.4886 8.03826C87.0775 13.671 87.6676 19.3037 88.2572 24.9364C67.8348 26.1752 57.2603 33.0234 51.391 38.974C44.5649 45.8937 43.8779 51.8254 36.6761 57.1168C30.5546 61.6154 23.2599 63.0538 16.3045 63.0538C11.3881 63.0538 6.63996 62.3343 2.60034 61.4685C16.8414 57.7526 24.7172 51.4244 29.2495 46.4384C35.6732 39.3698 34.4415 36.0264 42.1652 27.6521C52.0137 16.9722 62.9723 12.6992 66.1507 11.5501C74.3762 8.57512 81.6378 8.03826 86.3059 8.03826ZM86.3059 5.43835C79.0749 5.43835 71.996 6.67137 65.2681 9.10424C59.9246 11.0366 49.5724 15.7854 40.2543 25.8886C35.9657 30.5399 34.229 33.8372 32.6983 36.7453C31.3307 39.3393 30.1517 41.5797 27.3255 44.6892C21.2853 51.3359 12.7452 56.1341 1.94451 58.9524C0.779098 59.2566 -0.0242777 60.3206 0.0010715 61.525C0.0277206 62.7294 0.878545 63.7577 2.05631 64.0099C7.14304 65.1005 11.9379 65.6531 16.3051 65.6531C25.0279 65.6531 32.3986 63.4854 38.2166 59.2117C42.6189 55.9761 44.86 52.4384 47.0258 49.0169C48.6904 46.3877 50.4115 43.6682 53.2428 40.7985C60.9945 32.9403 72.8273 28.4762 88.4151 27.5305C89.1236 27.4882 89.7827 27.1581 90.2409 26.6166C90.7004 26.0758 90.9175 25.3706 90.8441 24.6653L89.9595 16.2066L89.0761 7.76723C88.9377 6.44647 87.8256 5.44161 86.4977 5.43771L86.3059 5.43835Z" fill="#442200"/>
<path d="M16.3047 99.6951C23.2601 99.6951 30.5548 101.133 36.6763 105.632C43.8781 110.923 44.5651 116.855 51.3912 123.775C57.2598 129.725 67.835 136.573 88.2574 137.812C87.6685 143.445 87.0783 149.078 86.4888 154.711C86.429 154.711 86.3679 154.711 86.3061 154.711C81.638 154.711 74.3764 154.174 66.1516 151.2C62.9725 150.05 52.0145 145.777 42.166 135.098C34.4423 126.723 35.674 123.38 29.2503 116.312C24.718 111.326 16.8422 104.998 2.60115 101.282C6.64012 100.415 11.3882 99.6957 16.3047 99.6951ZM16.3073 97.0952C11.9374 97.0958 7.14256 97.6489 2.05582 98.7383C0.877407 98.9911 0.0272324 100.019 0.00058322 101.223C-0.024766 102.428 0.778609 103.492 1.94402 103.796C12.7447 106.614 21.2848 111.413 27.3264 118.059C30.1512 121.168 31.3302 123.408 32.6978 126.003C34.2285 128.912 35.9652 132.208 40.2551 136.86C49.5719 146.963 59.9248 151.712 65.2676 153.644C71.9962 156.076 79.0744 157.31 86.3055 157.31H86.4959C87.8238 157.306 88.9359 156.301 89.0744 154.98L89.959 146.522L90.8423 138.082C90.9158 137.377 90.6987 136.672 90.2391 136.131C89.7809 135.59 89.1218 135.259 88.4133 135.217C72.8255 134.271 60.992 129.807 53.241 121.949C50.4097 119.079 48.6886 116.36 47.024 113.731C44.8582 110.309 42.6178 106.771 38.2148 103.536C32.3981 99.2628 25.0274 97.0952 16.3073 97.0952Z" fill="#442200"/>
<path d="M529.511 8.03829C534.172 8.02464 541.516 8.53682 549.849 11.5488C553.028 12.6986 563.986 16.9716 573.834 27.6507C581.558 36.0257 580.326 39.3686 586.75 46.4371C591.282 51.4231 599.158 57.7512 613.399 61.4672C603.645 63.5575 589.774 64.7944 579.323 57.1162C572.121 51.8248 571.434 45.8931 564.608 38.9734C558.74 33.0235 548.165 26.1753 527.742 24.9358C528.332 19.303 528.922 13.671 529.511 8.03829Z" fill="url(#paint2_linear_5_1380)"/>
<path d="M529.511 154.711C534.172 154.724 541.516 154.212 549.849 151.2C553.028 150.05 563.986 145.777 573.834 135.098C581.558 126.723 580.326 123.38 586.75 116.312C591.282 111.326 599.158 104.998 613.399 101.282C603.645 99.1913 589.774 97.9545 579.323 105.633C572.121 110.924 571.434 116.856 564.608 123.776C558.74 129.725 548.165 136.574 527.742 137.813C528.332 143.445 528.922 149.078 529.511 154.711Z" fill="url(#paint3_linear_5_1380)"/>
<g opacity="0.3">
<path d="M586.75 49.3704C580.326 42.3019 581.558 38.9584 573.834 30.5841C563.986 19.9043 553.027 15.6313 549.849 14.4821C541.516 11.4695 534.172 10.9573 529.512 10.9716C529.023 15.6346 528.536 20.2982 528.047 24.9605C527.943 24.954 527.847 24.9429 527.743 24.9364C528.332 19.3037 528.922 13.671 529.512 8.03829C534.172 8.02464 541.516 8.53682 549.849 11.5488C553.028 12.6986 563.986 16.9716 573.834 27.6507C581.558 36.0257 580.326 39.3686 586.75 46.4371C591.283 51.4231 599.158 57.7512 613.399 61.4672C611.512 61.8715 609.468 62.2419 607.327 62.5234C596.848 58.7776 590.59 53.5947 586.75 49.3704Z" fill="white"/>
</g>
<g opacity="0.3">
<path d="M579.324 108.157C572.122 113.449 571.435 119.38 564.609 126.3C558.765 132.224 548.25 139.034 528.004 140.316C527.917 139.482 527.829 138.647 527.743 137.812C548.166 136.573 558.74 129.725 564.609 123.774C571.435 116.855 572.122 110.922 579.324 105.631C589.775 97.9524 603.646 99.19 613.4 101.28C611.538 101.766 609.791 102.298 608.14 102.865C599.055 101.557 588.011 101.774 579.324 108.157Z" fill="white"/>
</g>
<path d="M529.693 8.03827C534.362 8.03827 541.623 8.57515 549.848 11.5488C553.027 12.6986 563.985 16.9716 573.834 27.6507C581.557 36.0257 580.326 39.3686 586.749 46.4371C591.282 51.4231 599.157 57.7512 613.398 61.4672C609.359 62.3329 604.611 63.0525 599.694 63.0525C592.739 63.0525 585.444 61.6141 579.323 57.1156C572.121 51.8241 571.434 45.8924 564.608 38.9727C558.739 33.0228 548.164 26.1746 527.742 24.9351C528.33 19.3024 528.921 13.6696 529.51 8.03692C529.57 8.03822 529.631 8.03827 529.693 8.03827ZM529.693 5.43835H529.503C528.175 5.44225 527.063 6.44711 526.925 7.76787L526.041 16.2072L525.157 24.6661C525.083 25.3713 525.3 26.0765 525.76 26.6173C526.218 27.1587 526.877 27.4889 527.586 27.5311C543.173 28.4769 555.007 32.9409 562.758 40.7991C565.589 43.6688 567.31 46.3883 568.975 49.0175C571.141 52.439 573.381 55.9768 577.784 59.2124C583.602 63.486 590.973 65.6537 599.696 65.6537C604.063 65.6537 608.858 65.1006 613.944 64.0106C615.123 63.7577 615.973 62.7295 616 61.5257C616.025 60.3213 615.222 59.2573 614.056 58.9531C603.255 56.1348 594.715 51.3359 588.674 44.6899C585.849 41.581 584.67 39.3406 583.302 36.7459C581.772 33.8372 580.035 30.5405 575.745 25.8893C566.428 15.786 556.075 11.0366 550.733 9.10488C544.003 6.67136 536.924 5.43835 529.693 5.43835Z" fill="#442200"/>
<path d="M599.694 99.6951C604.611 99.6951 609.359 100.415 613.398 101.28C599.157 104.996 591.281 111.324 586.749 116.31C580.325 123.379 581.557 126.722 573.833 135.097C563.985 145.777 553.026 150.05 549.848 151.199C541.623 154.172 534.361 154.709 529.693 154.709C529.631 154.709 529.57 154.709 529.511 154.709C528.922 149.077 528.332 143.444 527.742 137.811C548.164 136.572 558.739 129.724 564.608 123.773C571.434 116.854 572.121 110.922 579.323 105.631C585.444 101.133 592.739 99.6951 599.694 99.6951ZM599.694 97.0952C590.971 97.0952 583.601 99.2628 577.783 103.536C573.38 106.772 571.139 110.31 568.974 113.731C567.309 116.361 565.588 119.08 562.756 121.95C555.005 129.808 543.172 134.272 527.584 135.218C526.876 135.26 526.217 135.59 525.758 136.132C525.299 136.672 525.082 137.378 525.155 138.083L526.038 146.523L526.923 154.981C527.062 156.302 528.174 157.307 529.502 157.31H529.692C536.923 157.31 544.002 156.077 550.73 153.645C556.073 151.712 566.426 146.963 575.744 136.86C580.032 132.209 581.769 128.912 583.3 126.004C584.667 123.41 585.846 121.169 588.672 118.06C594.713 111.413 603.253 106.615 614.053 103.796C615.219 103.492 616.022 102.428 615.997 101.224C615.97 100.019 615.119 98.9911 613.942 98.7389C608.856 97.6482 604.061 97.0952 599.694 97.0952Z" fill="#442200"/>
<path d="M524.254 127.203C549.869 127.203 570.633 106.439 570.633 80.8242C570.633 55.2096 549.869 34.4449 524.254 34.4449C498.64 34.4449 477.875 55.2096 477.875 80.8242C477.875 106.439 498.64 127.203 524.254 127.203Z" fill="url(#paint4_linear_5_1380)"/>
<path opacity="0.3" d="M524.254 37.2957C499.121 37.2957 478.708 57.3001 477.947 82.2496C477.932 81.7718 477.875 81.3051 477.875 80.8242C477.875 55.2098 498.64 34.4449 524.254 34.4449C549.869 34.4449 570.634 55.2098 570.634 80.8242C570.634 81.3051 570.577 81.7718 570.562 82.2496C569.801 57.3008 549.388 37.2957 524.254 37.2957Z" fill="white"/>
<path d="M524.255 34.4449C549.869 34.4449 570.634 55.2091 570.634 80.8242C570.634 106.439 549.869 127.203 524.255 127.203C498.64 127.203 477.875 106.439 477.875 80.8242C477.875 55.2091 498.64 34.4449 524.255 34.4449ZM524.255 31.845C497.247 31.845 475.275 53.8175 475.275 80.8242C475.275 107.831 497.247 129.803 524.255 129.803C551.262 129.803 573.234 107.831 573.234 80.8242C573.234 53.8175 551.262 31.845 524.255 31.845Z" fill="#442200"/>
<path d="M91.745 127.203C117.36 127.203 138.124 106.439 138.124 80.8242C138.124 55.2096 117.36 34.4449 91.745 34.4449C66.1304 34.4449 45.3657 55.2096 45.3657 80.8242C45.3657 106.439 66.1304 127.203 91.745 127.203Z" fill="url(#paint5_linear_5_1380)"/>
<path opacity="0.3" d="M91.745 37.2957C116.878 37.2957 137.292 57.3001 138.052 82.2496C138.067 81.7718 138.124 81.3051 138.124 80.8242C138.124 55.2098 117.359 34.4449 91.745 34.4449C66.1306 34.4449 45.3657 55.2098 45.3657 80.8242C45.3657 81.3051 45.4229 81.7718 45.4379 82.2496C46.1983 57.3008 66.6116 37.2957 91.745 37.2957Z" fill="white"/>
<path d="M91.7458 34.4449C117.36 34.4449 138.124 55.2091 138.124 80.8242C138.124 106.439 117.361 127.203 91.7458 127.203C66.1301 127.203 45.3665 106.439 45.3665 80.8242C45.3659 55.2091 66.1301 34.4449 91.7458 34.4449ZM91.7458 31.845C64.7385 31.845 42.7666 53.8175 42.7666 80.8242C42.7666 107.831 64.7391 129.803 91.7458 129.803C118.753 129.803 140.724 107.831 140.724 80.8242C140.724 53.8175 118.753 31.845 91.7458 31.845Z" fill="#442200"/>
<path d="M524.38 21.4453H91.6196V140.203H524.38V21.4453Z" fill="url(#paint6_linear_5_1380)"/>
<path opacity="0.2" d="M524.38 80.8242H91.6196V140.202H524.38V80.8242Z" fill="black"/>
<path opacity="0.3" d="M511.38 34.4449V127.203H104.619V34.4449H511.38ZM524.38 21.4453H91.6196V140.203H524.38L524.38 21.4453Z" fill="black"/>
<path d="M530.879 146.704H85.1206V14.9456H530.88L530.879 146.704ZM98.1202 133.704H517.88V27.9451H98.1202V133.704Z" fill="url(#paint7_linear_5_1380)"/>
<g opacity="0.3">
<path d="M517.88 133.704H98.1201V136.304H517.88V133.704Z" fill="white"/>
<path d="M530.88 14.9456H85.1206V17.5455H530.88V14.9456Z" fill="white"/>
</g>
<path d="M530.879 14.9456V146.704H85.1204V14.9456H530.879ZM98.12 133.704H517.88V27.9451H98.12V133.704ZM533.479 12.3456H530.879H85.1204H82.5205V14.9456V146.704V149.303H85.1204H530.879H533.479V146.704V14.9456L533.479 12.3456ZM100.72 30.5451H515.28V131.104H100.72V30.5451Z" fill="#442200"/>
<path d="M91.7451 108.501C107.031 108.501 119.422 96.1096 119.422 80.8242C119.422 65.5387 107.031 53.1475 91.7451 53.1475C76.4597 53.1475 64.0684 65.5387 64.0684 80.8242C64.0684 96.1096 76.4597 108.501 91.7451 108.501Z" fill="url(#paint8_linear_5_1380)"/>
<path opacity="0.3" d="M91.745 55.9995C106.548 55.9995 118.602 67.6316 119.35 82.2503C119.374 81.7752 119.421 81.3059 119.421 80.8249C119.421 65.5393 107.031 53.1481 91.745 53.1481C76.4588 53.1481 64.0688 65.5393 64.0688 80.8249C64.0688 81.3059 64.1156 81.7752 64.1397 82.2503C64.8878 67.6316 76.941 55.9995 91.745 55.9995Z" fill="white"/>
<path d="M91.7456 53.1475C107.03 53.1475 119.422 65.5386 119.422 80.8242C119.422 96.1097 107.03 108.5 91.7456 108.5C76.4594 108.5 64.0682 96.1097 64.0682 80.8242C64.0682 65.5386 76.4594 53.1475 91.7456 53.1475ZM91.7456 50.5475C75.0502 50.5475 61.4683 64.1295 61.4683 80.8242C61.4683 97.5189 75.0502 111.1 91.7456 111.1C108.44 111.1 122.022 97.5182 122.022 80.8242C122.022 64.1301 108.439 50.5475 91.7456 50.5475Z" fill="#442200"/>
<path d="M91.7448 96.256C100.268 96.256 107.177 89.3469 107.177 80.8242C107.177 72.3014 100.268 65.3924 91.7448 65.3924C83.222 65.3924 76.313 72.3014 76.313 80.8242C76.313 89.3469 83.222 96.256 91.7448 96.256Z" fill="url(#paint9_linear_5_1380)"/>
<path opacity="0.3" d="M91.7448 69.2923C98.1035 69.2923 103.277 74.4654 103.277 80.8242C103.277 87.1829 98.1035 92.3562 91.7448 92.3562C85.386 92.3562 80.2129 87.1829 80.2129 80.8242C80.2129 74.4654 85.386 69.2923 91.7448 69.2923ZM91.7448 65.3924C83.2216 65.3924 76.313 72.3017 76.313 80.8242C76.313 89.3467 83.2216 96.256 91.7448 96.256C100.268 96.256 107.177 89.3467 107.177 80.8242C107.177 72.3017 100.268 65.3924 91.7448 65.3924Z" fill="black"/>
<path opacity="0.2" d="M76.313 80.8242C76.313 89.3467 83.2216 96.256 91.7448 96.256C100.267 96.256 107.177 89.3467 107.177 80.8242H76.313Z" fill="black"/>
<path d="M524.254 108.501C539.539 108.501 551.931 96.1096 551.931 80.8242C551.931 65.5387 539.539 53.1475 524.254 53.1475C508.968 53.1475 496.577 65.5387 496.577 80.8242C496.577 96.1096 508.968 108.501 524.254 108.501Z" fill="url(#paint10_linear_5_1380)"/>
<path opacity="0.3" d="M524.254 55.9995C509.451 55.9995 497.397 67.6316 496.649 82.2503C496.625 81.7752 496.578 81.3059 496.578 80.8249C496.578 65.5393 508.969 53.1481 524.254 53.1481C539.54 53.1481 551.93 65.5393 551.93 80.8249C551.93 81.3059 551.884 81.7752 551.86 82.2503C551.111 67.6316 539.058 55.9995 524.254 55.9995Z" fill="white"/>
<path d="M524.255 53.1475C539.54 53.1475 551.931 65.5386 551.931 80.8242C551.931 96.1097 539.539 108.5 524.255 108.5C508.969 108.5 496.577 96.1097 496.577 80.8242C496.577 65.5386 508.969 53.1475 524.255 53.1475ZM524.255 50.5475C507.559 50.5475 493.978 64.1295 493.978 80.8242C493.978 97.5189 507.559 111.1 524.255 111.1C540.949 111.1 554.531 97.5182 554.531 80.8242C554.531 64.1301 540.948 50.5475 524.255 50.5475Z" fill="#442200"/>
<path d="M524.254 96.256C532.777 96.256 539.686 89.3469 539.686 80.8242C539.686 72.3014 532.777 65.3924 524.254 65.3924C515.731 65.3924 508.822 72.3014 508.822 80.8242C508.822 89.3469 515.731 96.256 524.254 96.256Z" fill="url(#paint11_linear_5_1380)"/>
<path opacity="0.3" d="M524.254 69.2923C530.613 69.2923 535.786 74.4654 535.786 80.8242C535.786 87.1829 530.613 92.3562 524.254 92.3562C517.895 92.3562 512.722 87.1829 512.722 80.8242C512.722 74.4654 517.895 69.2923 524.254 69.2923ZM524.254 65.3924C515.731 65.3924 508.822 72.3017 508.822 80.8242C508.822 89.3467 515.731 96.256 524.254 96.256C532.777 96.256 539.686 89.3467 539.686 80.8242C539.686 72.3017 532.777 65.3924 524.254 65.3924Z" fill="black"/>
<path opacity="0.2" d="M508.822 80.8242C508.822 89.3467 515.731 96.256 524.254 96.256C532.776 96.256 539.686 89.3467 539.686 80.8242H508.822Z" fill="black"/>
<path d="M91.6194 40.2317C101.995 40.2317 110.406 31.8208 110.406 21.4453C110.406 11.0699 101.995 2.65903 91.6194 2.65903C81.2439 2.65903 72.833 11.0699 72.833 21.4453C72.833 31.8208 81.2439 40.2317 91.6194 40.2317Z" fill="url(#paint12_linear_5_1380)"/>
<path opacity="0.3" d="M91.6195 4.59468C101.668 4.59468 109.85 12.4906 110.357 22.4132C110.373 22.0908 110.405 21.7723 110.405 21.4453C110.405 11.0697 101.995 2.65903 91.6189 2.65903C81.2426 2.65903 72.8325 11.0704 72.8325 21.4453C72.8325 21.7716 72.8644 22.0901 72.8806 22.4132C73.3889 12.4906 81.5708 4.59468 91.6195 4.59468Z" fill="white"/>
<path d="M91.6193 2.65903C101.994 2.65903 110.405 11.0697 110.405 21.4447C110.405 31.8203 101.994 40.231 91.6193 40.231C81.2437 40.231 72.8323 31.8203 72.8323 21.4447C72.8323 11.0704 81.2444 2.65903 91.6193 2.65903ZM91.6193 0.0591125C79.8268 0.0591125 70.2324 9.65279 70.2324 21.4447C70.2324 33.2366 79.8274 42.8309 91.6193 42.8309C103.411 42.8309 113.005 33.2366 113.005 21.4447C113.005 9.65279 103.412 0.0591125 91.6193 0.0591125Z" fill="#442200"/>
<path d="M91.6196 31.9204C97.4048 31.9204 102.095 27.2305 102.095 21.4453C102.095 15.6601 97.4048 10.9703 91.6196 10.9703C85.8344 10.9703 81.1445 15.6601 81.1445 21.4453C81.1445 27.2305 85.8344 31.9204 91.6196 31.9204Z" fill="url(#paint13_linear_5_1380)"/>
<path opacity="0.3" d="M91.6196 13.6176C95.9361 13.6176 99.4473 17.1288 99.4473 21.4453C99.4473 25.7618 95.9361 29.273 91.6196 29.273C87.3031 29.273 83.7919 25.7618 83.7919 21.4453C83.7919 17.1288 87.3031 13.6176 91.6196 13.6176ZM91.6196 10.9709C85.8341 10.9709 81.1445 15.6605 81.1445 21.446C81.1445 27.2314 85.8341 31.9211 91.6196 31.9211C97.4051 31.9211 102.095 27.2314 102.095 21.446C102.095 15.6605 97.4051 10.9709 91.6196 10.9709Z" fill="black"/>
<path opacity="0.2" d="M81.1445 21.4453C81.1445 27.2302 85.8341 31.9204 91.6196 31.9204C97.4044 31.9204 102.095 27.2308 102.095 21.4453H81.1445Z" fill="black"/>
<path d="M91.6194 158.989C101.995 158.989 110.406 150.578 110.406 140.203C110.406 129.828 101.995 121.417 91.6194 121.417C81.2439 121.417 72.833 129.828 72.833 140.203C72.833 150.578 81.2439 158.989 91.6194 158.989Z" fill="url(#paint14_linear_5_1380)"/>
<path opacity="0.3" d="M91.6195 123.352C101.668 123.352 109.85 131.248 110.357 141.171C110.373 140.848 110.405 140.53 110.405 140.203C110.405 129.827 101.995 121.417 91.6189 121.417C81.2426 121.417 72.8325 129.828 72.8325 140.203C72.8325 140.529 72.8644 140.848 72.8806 141.171C73.3889 131.248 81.5708 123.352 91.6195 123.352Z" fill="white"/>
<path d="M91.6193 121.416C101.994 121.416 110.405 129.827 110.405 140.202C110.405 150.578 101.994 158.989 91.6193 158.989C81.2437 158.989 72.8323 150.578 72.8323 140.202C72.8323 129.827 81.2444 121.416 91.6193 121.416ZM91.6193 118.816C79.8268 118.816 70.2324 128.41 70.2324 140.202C70.2324 151.994 79.8274 161.589 91.6193 161.589C103.411 161.589 113.005 151.994 113.005 140.202C113.005 128.41 103.412 118.816 91.6193 118.816Z" fill="#442200"/>
<path d="M91.6196 150.678C97.4048 150.678 102.095 145.988 102.095 140.203C102.095 134.418 97.4048 129.728 91.6196 129.728C85.8344 129.728 81.1445 134.418 81.1445 140.203C81.1445 145.988 85.8344 150.678 91.6196 150.678Z" fill="url(#paint15_linear_5_1380)"/>
<path opacity="0.3" d="M91.6196 132.375C95.9361 132.375 99.4473 135.886 99.4473 140.203C99.4473 144.52 95.9361 148.031 91.6196 148.031C87.3031 148.031 83.7919 144.52 83.7919 140.203C83.7919 135.886 87.3031 132.375 91.6196 132.375ZM91.6196 129.728C85.8341 129.728 81.1445 134.418 81.1445 140.203C81.1445 145.988 85.8341 150.678 91.6196 150.678C97.4051 150.678 102.095 145.988 102.095 140.203C102.095 134.418 97.4051 129.728 91.6196 129.728Z" fill="black"/>
<path opacity="0.2" d="M81.1445 140.203C81.1445 145.988 85.8341 150.678 91.6196 150.678C97.4044 150.678 102.095 145.988 102.095 140.203H81.1445Z" fill="black"/>
<path d="M524.38 40.2317C534.755 40.2317 543.166 31.8208 543.166 21.4453C543.166 11.0699 534.755 2.65903 524.38 2.65903C514.004 2.65903 505.593 11.0699 505.593 21.4453C505.593 31.8208 514.004 40.2317 524.38 40.2317Z" fill="url(#paint16_linear_5_1380)"/>
<path opacity="0.3" d="M524.38 4.59468C534.428 4.59468 542.61 12.4906 543.117 22.4132C543.134 22.0908 543.165 21.7723 543.165 21.4453C543.165 11.0697 534.755 2.65903 524.379 2.65903C514.004 2.65903 505.593 11.0704 505.593 21.4453C505.593 21.7716 505.625 22.0901 505.641 22.4132C506.15 12.4906 514.332 4.59468 524.38 4.59468Z" fill="white"/>
<path d="M524.38 2.65903C534.754 2.65903 543.166 11.0697 543.166 21.4447C543.166 31.8203 534.754 40.231 524.38 40.231C514.004 40.231 505.593 31.8203 505.593 21.4447C505.593 11.0704 514.004 2.65903 524.38 2.65903ZM524.38 0.0591125C512.588 0.0591125 502.993 9.65279 502.993 21.4447C502.993 33.2366 512.588 42.8309 524.38 42.8309C536.173 42.8309 545.766 33.2366 545.766 21.4447C545.766 9.65279 536.173 0.0591125 524.38 0.0591125Z" fill="#442200"/>
<path d="M524.38 31.9204C530.165 31.9204 534.855 27.2305 534.855 21.4453C534.855 15.6601 530.165 10.9703 524.38 10.9703C518.595 10.9703 513.905 15.6601 513.905 21.4453C513.905 27.2305 518.595 31.9204 524.38 31.9204Z" fill="url(#paint17_linear_5_1380)"/>
<path opacity="0.3" d="M524.38 13.6176C528.696 13.6176 532.208 17.1288 532.208 21.4453C532.208 25.7618 528.696 29.273 524.38 29.273C520.063 29.273 516.552 25.7618 516.552 21.4453C516.552 17.1288 520.064 13.6176 524.38 13.6176ZM524.38 10.9709C518.594 10.9709 513.905 15.6605 513.905 21.446C513.905 27.2314 518.594 31.9211 524.38 31.9211C530.165 31.9211 534.855 27.2314 534.855 21.446C534.855 15.6605 530.165 10.9709 524.38 10.9709Z" fill="black"/>
<path opacity="0.2" d="M513.905 21.4453C513.905 27.2302 518.595 31.9204 524.38 31.9204C530.165 31.9204 534.855 27.2308 534.855 21.4453H513.905Z" fill="black"/>
<path d="M524.38 158.989C534.755 158.989 543.166 150.578 543.166 140.203C543.166 129.828 534.755 121.417 524.38 121.417C514.004 121.417 505.593 129.828 505.593 140.203C505.593 150.578 514.004 158.989 524.38 158.989Z" fill="url(#paint18_linear_5_1380)"/>
<path opacity="0.3" d="M524.38 123.352C534.428 123.352 542.61 131.248 543.117 141.171C543.134 140.848 543.165 140.53 543.165 140.203C543.165 129.827 534.755 121.417 524.379 121.417C514.004 121.417 505.593 129.828 505.593 140.203C505.593 140.529 505.625 140.848 505.641 141.171C506.15 131.248 514.332 123.352 524.38 123.352Z" fill="white"/>
<path d="M524.38 121.416C534.754 121.416 543.166 129.827 543.166 140.202C543.166 150.578 534.754 158.989 524.38 158.989C514.004 158.989 505.593 150.578 505.593 140.202C505.593 129.827 514.004 121.416 524.38 121.416ZM524.38 118.816C512.588 118.816 502.993 128.41 502.993 140.202C502.993 151.994 512.588 161.589 524.38 161.589C536.173 161.589 545.766 151.994 545.766 140.202C545.766 128.41 536.173 118.816 524.38 118.816Z" fill="#442200"/>
<path d="M524.38 150.678C530.165 150.678 534.855 145.988 534.855 140.203C534.855 134.418 530.165 129.728 524.38 129.728C518.595 129.728 513.905 134.418 513.905 140.203C513.905 145.988 518.595 150.678 524.38 150.678Z" fill="url(#paint19_linear_5_1380)"/>
<path opacity="0.3" d="M524.38 132.375C528.696 132.375 532.208 135.886 532.208 140.203C532.208 144.52 528.696 148.031 524.38 148.031C520.063 148.031 516.552 144.52 516.552 140.203C516.552 135.886 520.064 132.375 524.38 132.375ZM524.38 129.728C518.594 129.728 513.905 134.418 513.905 140.203C513.905 145.988 518.594 150.678 524.38 150.678C530.165 150.678 534.855 145.988 534.855 140.203C534.855 134.418 530.165 129.728 524.38 129.728Z" fill="black"/>
<path opacity="0.2" d="M513.905 140.203C513.905 145.988 518.595 150.678 524.38 150.678C530.165 150.678 534.855 145.988 534.855 140.203H513.905Z" fill="black"/>
<path d="M241.672 96.0591V65.315H248.172V78H261.368V65.315H267.853V96.0591H261.368V83.3592H248.172V96.0591H241.672ZM278.511 96.0591H271.546L282.159 65.315H290.535L301.134 96.0591H294.168L286.467 72.3405H286.227L278.511 96.0591ZM278.076 83.9746H294.529V89.0486H278.076V83.9746ZM304.834 96.0591V65.315H316.964C319.285 65.315 321.267 65.7303 322.908 66.561C324.56 67.3816 325.816 68.5475 326.676 70.0587C327.547 71.5599 327.982 73.3263 327.982 75.3579C327.982 77.3995 327.542 79.1559 326.661 80.627C325.781 82.0882 324.505 83.209 322.833 83.9897C321.172 84.7703 319.16 85.1606 316.798 85.1606H308.677V79.9365H315.748C316.989 79.9365 318.019 79.7663 318.84 79.4261C319.661 79.0858 320.271 78.5754 320.672 77.8949C321.082 77.2143 321.287 76.3687 321.287 75.3579C321.287 74.3371 321.082 73.4764 320.672 72.7759C320.271 72.0753 319.656 71.5449 318.825 71.1846C318.004 70.8143 316.969 70.6292 315.718 70.6292H311.334V96.0591H304.834ZM321.437 82.0681L329.078 96.0591H321.902L314.427 82.0681H321.437ZM343.474 96.0591H332.576V65.315H343.564C346.657 65.315 349.319 65.9305 351.551 67.1615C353.782 68.3824 355.499 70.1388 356.7 72.4306C357.911 74.7224 358.516 77.4645 358.516 80.657C358.516 83.8595 357.911 86.6117 356.7 88.9135C355.499 91.2153 353.772 92.9817 351.521 94.2127C349.279 95.4436 346.597 96.0591 343.474 96.0591ZM339.076 90.4897H343.204C345.126 90.4897 346.742 90.1495 348.053 89.4689C349.374 88.7784 350.365 87.7126 351.025 86.2714C351.696 84.8203 352.031 82.9488 352.031 80.657C352.031 78.3853 351.696 76.5288 351.025 75.0877C350.365 73.6465 349.379 72.5857 348.068 71.9052C346.757 71.2246 345.141 70.8844 343.219 70.8844H339.076V90.4897Z" fill="white"/>
<defs>
<linearGradient id="paint0_linear_5_1380" x1="45.4287" y1="63.0529" x2="45.4287" y2="8.03764" gradientUnits="userSpaceOnUse">
<stop stop-color="#BE6500"/>
<stop offset="0.5768" stop-color="#E5B84B"/>
<stop offset="1" stop-color="#FFF17F"/>
</linearGradient>
<linearGradient id="paint1_linear_5_1380" x1="45.4287" y1="154.711" x2="45.4287" y2="99.6957" gradientUnits="userSpaceOnUse">
<stop stop-color="#BE6500"/>
<stop offset="0.5768" stop-color="#E5B84B"/>
<stop offset="1" stop-color="#FFF17F"/>
</linearGradient>
<linearGradient id="paint2_linear_5_1380" x1="570.571" y1="63.0529" x2="570.571" y2="8.03764" gradientUnits="userSpaceOnUse">
<stop stop-color="#BE6500"/>
<stop offset="0.5768" stop-color="#E5B84B"/>
<stop offset="1" stop-color="#FFF17F"/>
</linearGradient>
<linearGradient id="paint3_linear_5_1380" x1="570.571" y1="154.711" x2="570.571" y2="99.6957" gradientUnits="userSpaceOnUse">
<stop stop-color="#BE6500"/>
<stop offset="0.5768" stop-color="#E5B84B"/>
<stop offset="1" stop-color="#FFF17F"/>
</linearGradient>
<linearGradient id="paint4_linear_5_1380" x1="524.254" y1="127.203" x2="524.254" y2="34.4447" gradientUnits="userSpaceOnUse">
<stop stop-color="#BE6500"/>
<stop offset="0.1734" stop-color="#C67711"/>
<stop offset="0.5225" stop-color="#DDA73C"/>
<stop offset="1" stop-color="#FFF17F"/>
</linearGradient>
<linearGradient id="paint5_linear_5_1380" x1="91.7449" y1="127.203" x2="91.7449" y2="34.4447" gradientUnits="userSpaceOnUse">
<stop stop-color="#BE6500"/>
<stop offset="0.1734" stop-color="#C67711"/>
<stop offset="0.5225" stop-color="#DDA73C"/>
<stop offset="1" stop-color="#FFF17F"/>
</linearGradient>
<linearGradient id="paint6_linear_5_1380" x1="308" y1="140.203" x2="308" y2="21.4453" gradientUnits="userSpaceOnUse">
<stop stop-color="#0C3446"/>
<stop offset="1" stop-color="#124156"/>
</linearGradient>
<linearGradient id="paint7_linear_5_1380" x1="85.1204" y1="80.8243" x2="530.879" y2="80.8243" gradientUnits="userSpaceOnUse">
<stop stop-color="#BE6500"/>
<stop offset="0.3145" stop-color="#E5B84B"/>
<stop offset="0.5452" stop-color="#FFF17F"/>
<stop offset="0.9944" stop-color="#DE9100"/>
</linearGradient>
<linearGradient id="paint8_linear_5_1380" x1="91.7451" y1="108.501" x2="91.7451" y2="53.1475" gradientUnits="userSpaceOnUse">
<stop stop-color="#BE6500"/>
<stop offset="0.1734" stop-color="#C67711"/>
<stop offset="0.5225" stop-color="#DDA73C"/>
<stop offset="1" stop-color="#FFF17F"/>
</linearGradient>
<linearGradient id="paint9_linear_5_1380" x1="91.7447" y1="96.2559" x2="91.7447" y2="65.3924" gradientUnits="userSpaceOnUse">
<stop stop-color="#960068"/>
<stop offset="0.2498" stop-color="#A80074"/>
<stop offset="0.7272" stop-color="#C50088"/>
<stop offset="1" stop-color="#D00090"/>
</linearGradient>
<linearGradient id="paint10_linear_5_1380" x1="524.254" y1="108.501" x2="524.254" y2="53.1475" gradientUnits="userSpaceOnUse">
<stop stop-color="#BE6500"/>
<stop offset="0.1734" stop-color="#C67711"/>
<stop offset="0.5225" stop-color="#DDA73C"/>
<stop offset="1" stop-color="#FFF17F"/>
</linearGradient>
<linearGradient id="paint11_linear_5_1380" x1="524.254" y1="96.2559" x2="524.254" y2="65.3924" gradientUnits="userSpaceOnUse">
<stop stop-color="#960068"/>
<stop offset="0.2498" stop-color="#A80074"/>
<stop offset="0.7272" stop-color="#C50088"/>
<stop offset="1" stop-color="#D00090"/>
</linearGradient>
<linearGradient id="paint12_linear_5_1380" x1="91.6192" y1="40.2318" x2="91.6192" y2="2.65909" gradientUnits="userSpaceOnUse">
<stop stop-color="#BE6500"/>
<stop offset="0.1734" stop-color="#C67711"/>
<stop offset="0.5225" stop-color="#DDA73C"/>
<stop offset="1" stop-color="#FFF17F"/>
</linearGradient>
<linearGradient id="paint13_linear_5_1380" x1="91.6194" y1="31.9202" x2="91.6194" y2="10.9706" gradientUnits="userSpaceOnUse">
<stop stop-color="#960068"/>
<stop offset="0.2498" stop-color="#A80074"/>
<stop offset="0.7272" stop-color="#C50088"/>
<stop offset="1" stop-color="#D00090"/>
</linearGradient>
<linearGradient id="paint14_linear_5_1380" x1="91.6192" y1="158.989" x2="91.6192" y2="121.416" gradientUnits="userSpaceOnUse">
<stop stop-color="#BE6500"/>
<stop offset="0.1734" stop-color="#C67711"/>
<stop offset="0.5225" stop-color="#DDA73C"/>
<stop offset="1" stop-color="#FFF17F"/>
</linearGradient>
<linearGradient id="paint15_linear_5_1380" x1="91.6194" y1="150.678" x2="91.6194" y2="129.728" gradientUnits="userSpaceOnUse">
<stop stop-color="#960068"/>
<stop offset="0.2498" stop-color="#A80074"/>
<stop offset="0.7272" stop-color="#C50088"/>
<stop offset="1" stop-color="#D00090"/>
</linearGradient>
<linearGradient id="paint16_linear_5_1380" x1="524.38" y1="40.2318" x2="524.38" y2="2.65909" gradientUnits="userSpaceOnUse">
<stop stop-color="#BE6500"/>
<stop offset="0.1734" stop-color="#C67711"/>
<stop offset="0.5225" stop-color="#DDA73C"/>
<stop offset="1" stop-color="#FFF17F"/>
</linearGradient>
<linearGradient id="paint17_linear_5_1380" x1="524.38" y1="31.9202" x2="524.38" y2="10.9706" gradientUnits="userSpaceOnUse">
<stop stop-color="#960068"/>
<stop offset="0.2498" stop-color="#A80074"/>
<stop offset="0.7272" stop-color="#C50088"/>
<stop offset="1" stop-color="#D00090"/>
</linearGradient>
<linearGradient id="paint18_linear_5_1380" x1="524.38" y1="158.989" x2="524.38" y2="121.416" gradientUnits="userSpaceOnUse">
<stop stop-color="#BE6500"/>
<stop offset="0.1734" stop-color="#C67711"/>
<stop offset="0.5225" stop-color="#DDA73C"/>
<stop offset="1" stop-color="#FFF17F"/>
</linearGradient>
<linearGradient id="paint19_linear_5_1380" x1="524.38" y1="150.678" x2="524.38" y2="129.728" gradientUnits="userSpaceOnUse">
<stop stop-color="#960068"/>
<stop offset="0.2498" stop-color="#A80074"/>
<stop offset="0.7272" stop-color="#C50088"/>
<stop offset="1" stop-color="#D00090"/>
</linearGradient>
</defs>
</svg>
