<svg width="616" height="162" viewBox="0 0 616 162" fill="none" xmlns="http://www.w3.org/2000/svg">
<path d="M86.4882 7.9792C81.8279 7.96555 74.4837 8.47774 66.151 11.4897C62.972 12.6396 52.0139 16.9125 42.1655 27.5916C34.4418 35.9666 35.6735 39.3095 29.2497 46.378C24.7174 51.364 16.8416 57.6922 2.60059 61.4081C12.3542 63.4984 26.226 64.7354 36.6764 57.0572C43.8782 51.7657 44.5652 45.834 51.3913 38.9143C57.2599 32.9644 67.8351 26.1162 88.2574 24.8767C87.6679 19.244 87.0777 13.6119 86.4882 7.9792Z" fill="url(#paint0_linear_5_1552)"/>
<path d="M86.4882 154.652C81.8279 154.665 74.4837 154.153 66.151 151.141C62.972 149.991 52.0139 145.718 42.1655 135.039C34.4418 126.664 35.6735 123.321 29.2497 116.253C24.7174 111.267 16.8416 104.939 2.60059 101.223C12.3542 99.1322 26.226 97.8954 36.6764 105.574C43.8782 110.865 44.5652 116.797 51.3913 123.716C57.2599 129.666 67.8351 136.515 88.2574 137.754C87.6679 143.386 87.0777 149.019 86.4882 154.652Z" fill="url(#paint1_linear_5_1552)"/>
<g opacity="0.3">
<path d="M29.2488 49.3114C35.6725 42.2428 34.4408 38.8994 42.1645 30.525C52.013 19.8452 62.9716 15.5722 66.15 14.4231C74.4827 11.4104 81.8269 10.8982 86.4872 10.9125C86.976 15.5755 87.4635 20.2391 87.9523 24.9014C88.0563 24.8949 88.1518 24.8838 88.2558 24.8773C87.6669 19.2446 87.0767 13.6119 86.4872 7.9792C81.8269 7.96555 74.4827 8.47774 66.15 11.4897C62.971 12.6396 52.013 16.9125 42.1645 27.5916C34.4408 35.9666 35.6725 39.3095 29.2488 46.378C24.7165 51.364 16.8407 57.6922 2.59961 61.4081C4.48715 61.8124 6.53133 62.1829 8.67171 62.4643C19.1513 58.7185 25.4087 53.5356 29.2488 49.3114Z" fill="white"/>
</g>
<g opacity="0.3">
<path d="M36.6754 108.098C43.8772 113.389 44.5642 119.321 51.3903 126.241C57.2336 132.165 67.749 138.975 87.9945 140.257C88.0823 139.422 88.17 138.588 88.2558 137.753C67.8335 136.514 57.2589 129.666 51.3896 123.715C44.5642 116.796 43.8772 110.864 36.6754 105.573C26.225 97.894 12.3532 99.1316 2.59961 101.222C4.4618 101.707 6.20894 102.24 7.85924 102.807C16.944 101.498 27.9884 101.715 36.6754 108.098Z" fill="white"/>
</g>
<path d="M86.3064 7.97915C86.3688 7.97915 86.4293 7.97915 86.4891 7.97915C87.078 13.6119 87.6681 19.2445 88.2577 24.8773C67.8353 26.1161 57.2608 32.9643 51.3915 38.9149C44.5654 45.8346 43.8784 51.7663 36.6766 57.0577C30.5551 61.5562 23.2604 62.9947 16.305 62.9947C11.3885 62.9947 6.64045 62.2752 2.60083 61.4094C16.8419 57.6935 24.7177 51.3652 29.25 46.3793C35.6737 39.3107 34.442 35.9673 42.1657 27.5929C52.0142 16.9131 62.9728 12.6401 66.1512 11.491C74.3767 8.51601 81.6383 7.97915 86.3064 7.97915ZM86.3064 5.37924C79.0754 5.37924 71.9965 6.61226 65.2686 9.04513C59.9251 10.9775 49.5729 15.7263 40.2548 25.8295C35.9662 30.4808 34.2295 33.7781 32.6988 36.6861C31.3312 39.2802 30.1521 41.5206 27.326 44.6301C21.2858 51.2768 12.7457 56.075 1.945 58.8933C0.779586 59.1975 -0.0237894 60.2615 0.00155978 61.4659C0.0282089 62.6703 0.879033 63.6986 2.0568 63.9507C7.14353 65.0414 11.9384 65.5939 16.3056 65.5939C25.0284 65.5939 32.3991 63.4262 38.2171 59.1526C42.6194 55.917 44.8605 52.3792 47.0262 48.9577C48.6908 46.3286 50.412 43.609 53.2433 40.7394C60.9949 32.8811 72.8278 28.4171 88.4156 27.4714C89.1241 27.4291 89.7832 27.0989 90.2414 26.5575C90.7009 26.0167 90.918 25.3115 90.8446 24.6062L89.96 16.1475L89.0766 7.70812C88.9382 6.38736 87.8261 5.3825 86.4982 5.3786L86.3064 5.37924Z" fill="#442200"/>
<path d="M16.3047 99.636C23.2601 99.636 30.5548 101.074 36.6763 105.573C43.8781 110.864 44.5651 116.796 51.3912 123.716C57.2598 129.666 67.835 136.514 88.2574 137.753C87.6685 143.386 87.0783 149.019 86.4888 154.651C86.429 154.651 86.3679 154.651 86.3061 154.651C81.638 154.651 74.3764 154.115 66.1516 151.141C62.9725 149.991 52.0145 145.718 42.166 135.039C34.4423 126.664 35.674 123.321 29.2503 116.253C24.718 111.267 16.8422 104.938 2.60115 101.223C6.64012 100.356 11.3882 99.6366 16.3047 99.636ZM16.3073 97.0361C11.9374 97.0367 7.14256 97.5898 2.05582 98.6792C0.877407 98.932 0.0272324 99.9603 0.00058322 101.164C-0.024766 102.368 0.778609 103.432 1.94402 103.737C12.7447 106.555 21.2848 111.354 27.3264 118C30.1512 121.109 31.3302 123.349 32.6978 125.944C34.2285 128.853 35.9652 132.149 40.2551 136.8C49.5719 146.904 59.9248 151.653 65.2676 153.585C71.9962 156.017 79.0744 157.251 86.3055 157.251H86.4959C87.8238 157.247 88.9359 156.242 89.0744 154.921L89.959 146.463L90.8423 138.023C90.9158 137.318 90.6987 136.613 90.2391 136.072C89.7809 135.53 89.1218 135.2 88.4133 135.158C72.8255 134.212 60.992 129.748 53.241 121.89C50.4097 119.02 48.6886 116.301 47.024 113.672C44.8582 110.25 42.6178 106.712 38.2148 103.477C32.3981 99.2037 25.0274 97.0361 16.3073 97.0361Z" fill="#442200"/>
<path d="M529.511 7.97914C534.172 7.96549 541.516 8.47768 549.849 11.4897C553.028 12.6395 563.986 16.9124 573.834 27.5916C581.558 35.9666 580.326 39.3095 586.75 46.378C591.282 51.364 599.158 57.6921 613.399 61.408C603.645 63.4984 589.774 64.7353 579.323 57.0571C572.121 51.7656 571.434 45.8339 564.608 38.9142C558.74 32.9643 548.165 26.1161 527.742 24.8766C528.332 19.2439 528.922 13.6119 529.511 7.97914Z" fill="url(#paint2_linear_5_1552)"/>
<path d="M529.511 154.651C534.172 154.665 541.516 154.153 549.849 151.141C553.028 149.991 563.986 145.718 573.834 135.039C581.558 126.664 580.326 123.321 586.75 116.253C591.282 111.267 599.158 104.938 613.399 101.223C603.645 99.1322 589.774 97.8953 579.323 105.574C572.121 110.865 571.434 116.797 564.608 123.716C558.74 129.666 548.165 136.514 527.742 137.754C528.332 143.386 528.922 149.019 529.511 154.651Z" fill="url(#paint3_linear_5_1552)"/>
<g opacity="0.3">
<path d="M586.751 49.3113C580.327 42.2428 581.559 38.8993 573.835 30.525C563.987 19.8452 553.028 15.5722 549.85 14.423C541.517 11.4103 534.173 10.8982 529.513 10.9125C529.024 15.5754 528.536 20.2391 528.048 24.9014C527.944 24.8949 527.848 24.8838 527.744 24.8773C528.333 19.2445 528.923 13.6119 529.513 7.97914C534.173 7.96549 541.517 8.47768 549.85 11.4897C553.029 12.6395 563.987 16.9124 573.835 27.5916C581.559 35.9666 580.327 39.3095 586.751 46.378C591.284 51.364 599.159 57.6921 613.4 61.408C611.513 61.8123 609.469 62.1828 607.328 62.4642C596.849 58.7184 590.591 53.5355 586.751 49.3113Z" fill="white"/>
</g>
<g opacity="0.3">
<path d="M579.325 108.098C572.123 113.389 571.436 119.321 564.61 126.241C558.766 132.165 548.251 138.975 528.005 140.257C527.918 139.422 527.83 138.588 527.744 137.753C548.166 136.514 558.741 129.666 564.61 123.715C571.436 116.795 572.123 110.863 579.325 105.572C589.776 97.8933 603.647 99.1309 613.401 101.221C611.539 101.707 609.792 102.239 608.141 102.806C599.056 101.498 588.012 101.715 579.325 108.098Z" fill="white"/>
</g>
<path d="M529.693 7.97913C534.362 7.97913 541.623 8.51601 549.848 11.4897C553.027 12.6395 563.985 16.9124 573.834 27.5916C581.557 35.9665 580.326 39.3094 586.749 46.378C591.282 51.364 599.157 57.6921 613.398 61.408C609.359 62.2738 604.611 62.9934 599.694 62.9934C592.739 62.9934 585.444 61.5549 579.323 57.0564C572.121 51.765 571.434 45.8333 564.608 38.9136C558.739 32.9637 548.164 26.1155 527.742 24.876C528.33 19.2432 528.921 13.6105 529.51 7.97778C529.57 7.97908 529.631 7.97913 529.693 7.97913ZM529.693 5.37921H529.503C528.175 5.38311 527.063 6.38797 526.925 7.70873L526.041 16.1481L525.157 24.6069C525.083 25.3121 525.3 26.0173 525.76 26.5581C526.218 27.0996 526.877 27.4297 527.586 27.472C543.173 28.4177 555.007 32.8817 562.758 40.74C565.589 43.6097 567.31 46.3292 568.975 48.9584C571.141 52.3798 573.381 55.9176 577.784 59.1532C583.602 63.4269 590.973 65.5946 599.696 65.5946C604.063 65.5946 608.858 65.0415 613.944 63.9514C615.123 63.6986 615.973 62.6703 616 61.4666C616.025 60.2622 615.222 59.1981 614.056 58.8939C603.255 56.0756 594.715 51.2768 588.674 44.6307C585.849 41.5219 584.67 39.2815 583.302 36.6868C581.772 33.7781 580.035 30.4814 575.745 25.8301C566.428 15.7269 556.075 10.9775 550.733 9.04574C544.003 6.61222 536.924 5.37921 529.693 5.37921Z" fill="#442200"/>
<path d="M599.695 99.6359C604.612 99.6359 609.359 100.355 613.399 101.221C599.158 104.937 591.282 111.265 586.75 116.251C580.326 123.32 581.558 126.663 573.834 135.038C563.985 145.717 553.027 149.99 549.848 151.14C541.623 154.113 534.362 154.65 529.694 154.65C529.631 154.65 529.57 154.65 529.511 154.65C528.922 149.017 528.332 143.385 527.743 137.752C548.165 136.513 558.739 129.665 564.609 123.714C571.435 116.795 572.122 110.863 579.324 105.572C585.444 101.074 592.739 99.6359 599.695 99.6359ZM599.695 97.036C590.972 97.036 583.601 99.2036 577.783 103.477C573.381 106.713 571.14 110.251 568.974 113.672C567.309 116.301 565.588 119.021 562.757 121.891C555.005 129.749 543.172 134.213 527.585 135.159C526.876 135.201 526.217 135.531 525.759 136.072C525.299 136.613 525.082 137.318 525.156 138.024L526.039 146.464L526.924 154.922C527.062 156.243 528.174 157.247 529.502 157.251H529.693C536.924 157.251 544.002 156.018 550.73 153.585C556.074 151.653 566.426 146.904 575.744 136.801C580.033 132.15 581.769 128.852 583.3 125.944C584.668 123.35 585.847 121.11 588.673 118C594.713 111.354 603.253 106.556 614.054 103.737C615.219 103.433 616.023 102.369 615.997 101.165C615.971 99.9602 615.12 98.932 613.942 98.6798C608.857 97.5891 604.062 97.036 599.695 97.036Z" fill="#442200"/>
<path d="M524.254 127.144C549.869 127.144 570.633 106.38 570.633 80.765C570.633 55.1505 549.869 34.3858 524.254 34.3858C498.64 34.3858 477.875 55.1505 477.875 80.765C477.875 106.38 498.64 127.144 524.254 127.144Z" fill="url(#paint4_linear_5_1552)"/>
<path opacity="0.3" d="M524.254 37.2366C499.121 37.2366 478.708 57.241 477.947 82.1904C477.932 81.7127 477.875 81.246 477.875 80.765C477.875 55.1507 498.64 34.3858 524.254 34.3858C549.869 34.3858 570.634 55.1507 570.634 80.765C570.634 81.246 570.577 81.7127 570.562 82.1904C569.801 57.2417 549.388 37.2366 524.254 37.2366Z" fill="white"/>
<path d="M524.255 34.3858C549.87 34.3858 570.634 55.15 570.634 80.765C570.634 106.379 549.87 127.144 524.255 127.144C498.641 127.144 477.875 106.379 477.875 80.765C477.875 55.15 498.641 34.3858 524.255 34.3858ZM524.255 31.7859C497.248 31.7859 475.275 53.7584 475.275 80.765C475.275 107.772 497.248 129.744 524.255 129.744C551.262 129.744 573.234 107.772 573.234 80.765C573.234 53.7584 551.262 31.7859 524.255 31.7859Z" fill="#442200"/>
<path d="M91.7455 127.144C117.36 127.144 138.125 106.38 138.125 80.765C138.125 55.1505 117.36 34.3858 91.7455 34.3858C66.1309 34.3858 45.3662 55.1505 45.3662 80.765C45.3662 106.38 66.1309 127.144 91.7455 127.144Z" fill="url(#paint5_linear_5_1552)"/>
<path opacity="0.3" d="M91.7455 37.2366C116.879 37.2366 137.292 57.241 138.053 82.1904C138.068 81.7127 138.125 81.246 138.125 80.765C138.125 55.1507 117.36 34.3858 91.7455 34.3858C66.1311 34.3858 45.3662 55.1507 45.3662 80.765C45.3662 81.246 45.4234 81.7127 45.4384 82.1904C46.1988 57.2417 66.6121 37.2366 91.7455 37.2366Z" fill="white"/>
<path d="M91.7458 34.3858C117.36 34.3858 138.124 55.15 138.124 80.765C138.124 106.379 117.361 127.144 91.7458 127.144C66.1301 127.144 45.3665 106.379 45.3665 80.765C45.3659 55.15 66.1301 34.3858 91.7458 34.3858ZM91.7458 31.7859C64.7385 31.7859 42.7666 53.7584 42.7666 80.765C42.7666 107.772 64.7391 129.744 91.7458 129.744C118.753 129.744 140.724 107.772 140.724 80.765C140.724 53.7584 118.753 31.7859 91.7458 31.7859Z" fill="#442200"/>
<path d="M524.38 21.3862H91.6201V140.144H524.38V21.3862Z" fill="url(#paint6_linear_5_1552)"/>
<path opacity="0.2" d="M524.381 80.7651H91.6201V140.143H524.381V80.7651Z" fill="black"/>
<path opacity="0.3" d="M511.381 34.3858V127.144H104.62V34.3858H511.381ZM524.38 21.3862H91.6201V140.144H524.381L524.38 21.3862Z" fill="black"/>
<path d="M530.879 146.644H85.1211V14.8864H530.88L530.879 146.644ZM98.1207 133.645H517.88V27.886H98.1207V133.645Z" fill="url(#paint7_linear_5_1552)"/>
<g opacity="0.3">
<path d="M517.881 133.645H98.1211V136.245H517.881V133.645Z" fill="white"/>
<path d="M530.88 14.8864H85.1211V17.4863H530.88V14.8864Z" fill="white"/>
</g>
<path d="M530.879 14.8864V146.644H85.1204V14.8864H530.879ZM98.12 133.645H517.88V27.886H98.12V133.645ZM533.479 12.2865H530.879H85.1204H82.5205V14.8864V146.644V149.244H85.1204H530.879H533.479V146.644V14.8864L533.479 12.2865ZM100.72 30.4859H515.28V131.045H100.72V30.4859Z" fill="#442200"/>
<path d="M91.7451 108.442C107.031 108.442 119.422 96.0505 119.422 80.765C119.422 65.4796 107.031 53.0883 91.7451 53.0883C76.4597 53.0883 64.0684 65.4796 64.0684 80.765C64.0684 96.0505 76.4597 108.442 91.7451 108.442Z" fill="url(#paint8_linear_5_1552)"/>
<path opacity="0.3" d="M91.7454 55.9404C106.549 55.9404 118.603 67.5725 119.351 82.1912C119.375 81.7161 119.422 81.2468 119.422 80.7658C119.422 65.4802 107.031 53.089 91.7454 53.089C76.4592 53.089 64.0693 65.4802 64.0693 80.7658C64.0693 81.2468 64.1161 81.7161 64.1402 82.1912C64.8883 67.5725 76.9415 55.9404 91.7454 55.9404Z" fill="white"/>
<path d="M91.7461 53.0883C107.031 53.0883 119.422 65.4795 119.422 80.765C119.422 96.0506 107.031 108.441 91.7461 108.441C76.4599 108.441 64.0687 96.0506 64.0687 80.765C64.0687 65.4795 76.4599 53.0883 91.7461 53.0883ZM91.7461 50.4884C75.0507 50.4884 61.4688 64.0703 61.4688 80.765C61.4688 97.4598 75.0507 111.041 91.7461 111.041C108.44 111.041 122.022 97.4591 122.022 80.765C122.022 64.071 108.439 50.4884 91.7461 50.4884Z" fill="#442200"/>
<path d="M91.7453 96.1969C100.268 96.1969 107.177 89.2878 107.177 80.765C107.177 72.2423 100.268 65.3333 91.7453 65.3333C83.2225 65.3333 76.3135 72.2423 76.3135 80.765C76.3135 89.2878 83.2225 96.1969 91.7453 96.1969Z" fill="url(#paint9_linear_5_1552)"/>
<path opacity="0.3" d="M91.7453 69.2331C98.104 69.2331 103.277 74.4063 103.277 80.765C103.277 87.1238 98.104 92.297 91.7453 92.297C85.3865 92.297 80.2134 87.1238 80.2134 80.765C80.2134 74.4063 85.3865 69.2331 91.7453 69.2331ZM91.7453 65.3333C83.2221 65.3333 76.3135 72.2425 76.3135 80.765C76.3135 89.2875 83.2221 96.1969 91.7453 96.1969C100.268 96.1969 107.177 89.2875 107.177 80.765C107.177 72.2425 100.268 65.3333 91.7453 65.3333Z" fill="black"/>
<path opacity="0.2" d="M76.3135 80.7651C76.3135 89.2876 83.2221 96.1969 91.7453 96.1969C100.267 96.1969 107.177 89.2876 107.177 80.7651H76.3135Z" fill="black"/>
<path d="M524.254 108.442C539.539 108.442 551.931 96.0505 551.931 80.765C551.931 65.4796 539.539 53.0883 524.254 53.0883C508.968 53.0883 496.577 65.4796 496.577 80.765C496.577 96.0505 508.968 108.442 524.254 108.442Z" fill="url(#paint10_linear_5_1552)"/>
<path opacity="0.3" d="M524.254 55.9404C509.451 55.9404 497.397 67.5725 496.649 82.1912C496.625 81.7161 496.578 81.2468 496.578 80.7658C496.578 65.4802 508.969 53.089 524.254 53.089C539.54 53.089 551.93 65.4802 551.93 80.7658C551.93 81.2468 551.884 81.7161 551.86 82.1912C551.111 67.5725 539.058 55.9404 524.254 55.9404Z" fill="white"/>
<path d="M524.255 53.0883C539.54 53.0883 551.931 65.4795 551.931 80.765C551.931 96.0506 539.539 108.441 524.255 108.441C508.969 108.441 496.577 96.0506 496.577 80.765C496.577 65.4795 508.969 53.0883 524.255 53.0883ZM524.255 50.4884C507.559 50.4884 493.978 64.0703 493.978 80.765C493.978 97.4598 507.559 111.041 524.255 111.041C540.949 111.041 554.531 97.4591 554.531 80.765C554.531 64.071 540.948 50.4884 524.255 50.4884Z" fill="#442200"/>
<path d="M524.254 96.1969C532.777 96.1969 539.686 89.2878 539.686 80.765C539.686 72.2423 532.777 65.3333 524.254 65.3333C515.731 65.3333 508.822 72.2423 508.822 80.765C508.822 89.2878 515.731 96.1969 524.254 96.1969Z" fill="url(#paint11_linear_5_1552)"/>
<path opacity="0.3" d="M524.254 69.2331C530.613 69.2331 535.786 74.4063 535.786 80.765C535.786 87.1238 530.613 92.297 524.254 92.297C517.895 92.297 512.722 87.1238 512.722 80.765C512.722 74.4063 517.895 69.2331 524.254 69.2331ZM524.254 65.3333C515.731 65.3333 508.822 72.2425 508.822 80.765C508.822 89.2875 515.731 96.1969 524.254 96.1969C532.777 96.1969 539.686 89.2875 539.686 80.765C539.686 72.2425 532.777 65.3333 524.254 65.3333Z" fill="black"/>
<path opacity="0.2" d="M508.822 80.7651C508.822 89.2876 515.731 96.1969 524.254 96.1969C532.776 96.1969 539.686 89.2876 539.686 80.7651H508.822Z" fill="black"/>
<path d="M91.6194 40.1726C101.995 40.1726 110.406 31.7616 110.406 21.3862C110.406 11.0108 101.995 2.59991 91.6194 2.59991C81.2439 2.59991 72.833 11.0108 72.833 21.3862C72.833 31.7616 81.2439 40.1726 91.6194 40.1726Z" fill="url(#paint12_linear_5_1552)"/>
<path opacity="0.3" d="M91.62 4.53557C101.669 4.53557 109.851 12.4315 110.358 22.3541C110.374 22.0317 110.406 21.7132 110.406 21.3862C110.406 11.0106 101.996 2.59991 91.6194 2.59991C81.2431 2.59991 72.833 11.0113 72.833 21.3862C72.833 21.7125 72.8649 22.031 72.8811 22.3541C73.3894 12.4315 81.5713 4.53557 91.62 4.53557Z" fill="white"/>
<path d="M91.6193 2.59992C101.994 2.59992 110.405 11.0106 110.405 21.3856C110.405 31.7612 101.994 40.1719 91.6193 40.1719C81.2437 40.1719 72.8323 31.7612 72.8323 21.3856C72.8323 11.0113 81.2444 2.59992 91.6193 2.59992ZM91.6193 0C79.8268 0 70.2324 9.59368 70.2324 21.3856C70.2324 33.1775 79.8274 42.7718 91.6193 42.7718C103.411 42.7718 113.005 33.1775 113.005 21.3856C113.005 9.59368 103.412 0 91.6193 0Z" fill="#442200"/>
<path d="M91.6196 31.8613C97.4048 31.8613 102.095 27.1715 102.095 21.3862C102.095 15.601 97.4048 10.9112 91.6196 10.9112C85.8344 10.9112 81.1445 15.601 81.1445 21.3862C81.1445 27.1715 85.8344 31.8613 91.6196 31.8613Z" fill="url(#paint13_linear_5_1552)"/>
<path opacity="0.3" d="M91.6196 13.5585C95.9361 13.5585 99.4473 17.0697 99.4473 21.3862C99.4473 25.7027 95.9361 29.2139 91.6196 29.2139C87.3031 29.2139 83.7919 25.7027 83.7919 21.3862C83.7919 17.0697 87.3031 13.5585 91.6196 13.5585ZM91.6196 10.9118C85.8341 10.9118 81.1445 15.6014 81.1445 21.3868C81.1445 27.1723 85.8341 31.862 91.6196 31.862C97.4051 31.862 102.095 27.1723 102.095 21.3868C102.095 15.6014 97.4051 10.9118 91.6196 10.9118Z" fill="black"/>
<path opacity="0.2" d="M81.1445 21.3862C81.1445 27.171 85.8341 31.8613 91.6196 31.8613C97.4044 31.8613 102.095 27.1717 102.095 21.3862H81.1445Z" fill="black"/>
<path d="M91.6194 158.93C101.995 158.93 110.406 150.519 110.406 140.144C110.406 129.768 101.995 121.358 91.6194 121.358C81.2439 121.358 72.833 129.768 72.833 140.144C72.833 150.519 81.2439 158.93 91.6194 158.93Z" fill="url(#paint14_linear_5_1552)"/>
<path opacity="0.3" d="M91.62 123.293C101.669 123.293 109.851 131.189 110.358 141.112C110.374 140.789 110.406 140.471 110.406 140.144C110.406 129.768 101.996 121.358 91.6194 121.358C81.2431 121.358 72.833 129.769 72.833 140.144C72.833 140.47 72.8649 140.789 72.8811 141.112C73.3894 131.189 81.5713 123.293 91.62 123.293Z" fill="white"/>
<path d="M91.6193 121.357C101.994 121.357 110.405 129.768 110.405 140.143C110.405 150.519 101.994 158.93 91.6193 158.93C81.2437 158.93 72.8323 150.519 72.8323 140.143C72.8323 129.768 81.2444 121.357 91.6193 121.357ZM91.6193 118.757C79.8268 118.757 70.2324 128.351 70.2324 140.143C70.2324 151.935 79.8274 161.53 91.6193 161.53C103.411 161.53 113.005 151.935 113.005 140.143C113.005 128.351 103.412 118.757 91.6193 118.757Z" fill="#442200"/>
<path d="M91.6196 150.619C97.4048 150.619 102.095 145.929 102.095 140.144C102.095 134.359 97.4048 129.669 91.6196 129.669C85.8344 129.669 81.1445 134.359 81.1445 140.144C81.1445 145.929 85.8344 150.619 91.6196 150.619Z" fill="url(#paint15_linear_5_1552)"/>
<path opacity="0.3" d="M91.6196 132.316C95.9361 132.316 99.4473 135.827 99.4473 140.144C99.4473 144.46 95.9361 147.972 91.6196 147.972C87.3031 147.972 83.7919 144.46 83.7919 140.144C83.7919 135.827 87.3031 132.316 91.6196 132.316ZM91.6196 129.669C85.8341 129.669 81.1445 134.358 81.1445 140.144C81.1445 145.929 85.8341 150.619 91.6196 150.619C97.4051 150.619 102.095 145.929 102.095 140.144C102.095 134.358 97.4051 129.669 91.6196 129.669Z" fill="black"/>
<path opacity="0.2" d="M81.1445 140.144C81.1445 145.929 85.8341 150.619 91.6196 150.619C97.4044 150.619 102.095 145.929 102.095 140.144H81.1445Z" fill="black"/>
<path d="M524.38 40.1726C534.756 40.1726 543.166 31.7616 543.166 21.3862C543.166 11.0108 534.756 2.59991 524.38 2.59991C514.005 2.59991 505.594 11.0108 505.594 21.3862C505.594 31.7616 514.005 40.1726 524.38 40.1726Z" fill="url(#paint16_linear_5_1552)"/>
<path opacity="0.3" d="M524.38 4.53557C534.428 4.53557 542.61 12.4315 543.117 22.3541C543.134 22.0317 543.165 21.7132 543.165 21.3862C543.165 11.0106 534.755 2.59991 524.379 2.59991C514.004 2.59991 505.593 11.0113 505.593 21.3862C505.593 21.7125 505.625 22.031 505.641 22.3541C506.15 12.4315 514.332 4.53557 524.38 4.53557Z" fill="white"/>
<path d="M524.38 2.59992C534.754 2.59992 543.166 11.0106 543.166 21.3856C543.166 31.7612 534.754 40.1719 524.38 40.1719C514.004 40.1719 505.593 31.7612 505.593 21.3856C505.593 11.0113 514.004 2.59992 524.38 2.59992ZM524.38 0C512.588 0 502.993 9.59368 502.993 21.3856C502.993 33.1775 512.588 42.7718 524.38 42.7718C536.173 42.7718 545.766 33.1775 545.766 21.3856C545.766 9.59368 536.173 0 524.38 0Z" fill="#442200"/>
<path d="M524.379 31.8613C530.165 31.8613 534.854 27.1715 534.854 21.3862C534.854 15.601 530.165 10.9112 524.379 10.9112C518.594 10.9112 513.904 15.601 513.904 21.3862C513.904 27.1715 518.594 31.8613 524.379 31.8613Z" fill="url(#paint17_linear_5_1552)"/>
<path opacity="0.3" d="M524.379 13.5585C528.696 13.5585 532.207 17.0697 532.207 21.3862C532.207 25.7027 528.696 29.2139 524.379 29.2139C520.063 29.2139 516.552 25.7027 516.552 21.3862C516.552 17.0697 520.063 13.5585 524.379 13.5585ZM524.379 10.9118C518.594 10.9118 513.904 15.6014 513.904 21.3868C513.904 27.1723 518.594 31.862 524.379 31.862C530.165 31.862 534.854 27.1723 534.854 21.3868C534.854 15.6014 530.165 10.9118 524.379 10.9118Z" fill="black"/>
<path opacity="0.2" d="M513.905 21.3862C513.905 27.171 518.595 31.8613 524.38 31.8613C530.165 31.8613 534.855 27.1717 534.855 21.3862H513.905Z" fill="black"/>
<path d="M524.38 158.93C534.756 158.93 543.166 150.519 543.166 140.144C543.166 129.768 534.756 121.358 524.38 121.358C514.005 121.358 505.594 129.768 505.594 140.144C505.594 150.519 514.005 158.93 524.38 158.93Z" fill="url(#paint18_linear_5_1552)"/>
<path opacity="0.3" d="M524.38 123.293C534.428 123.293 542.61 131.189 543.117 141.112C543.134 140.789 543.165 140.471 543.165 140.144C543.165 129.768 534.755 121.358 524.379 121.358C514.004 121.358 505.593 129.769 505.593 140.144C505.593 140.47 505.625 140.789 505.641 141.112C506.15 131.189 514.332 123.293 524.38 123.293Z" fill="white"/>
<path d="M524.38 121.357C534.754 121.357 543.166 129.768 543.166 140.143C543.166 150.519 534.754 158.93 524.38 158.93C514.004 158.93 505.593 150.519 505.593 140.143C505.593 129.768 514.004 121.357 524.38 121.357ZM524.38 118.757C512.588 118.757 502.993 128.351 502.993 140.143C502.993 151.935 512.588 161.53 524.38 161.53C536.173 161.53 545.766 151.935 545.766 140.143C545.766 128.351 536.173 118.757 524.38 118.757Z" fill="#442200"/>
<path d="M524.379 150.619C530.165 150.619 534.854 145.929 534.854 140.144C534.854 134.359 530.165 129.669 524.379 129.669C518.594 129.669 513.904 134.359 513.904 140.144C513.904 145.929 518.594 150.619 524.379 150.619Z" fill="url(#paint19_linear_5_1552)"/>
<path opacity="0.3" d="M524.379 132.316C528.696 132.316 532.207 135.827 532.207 140.144C532.207 144.46 528.696 147.972 524.379 147.972C520.063 147.972 516.552 144.46 516.552 140.144C516.552 135.827 520.063 132.316 524.379 132.316ZM524.379 129.669C518.594 129.669 513.904 134.358 513.904 140.144C513.904 145.929 518.594 150.619 524.379 150.619C530.165 150.619 534.854 145.929 534.854 140.144C534.854 134.358 530.165 129.669 524.379 129.669Z" fill="black"/>
<path opacity="0.2" d="M513.905 140.144C513.905 145.929 518.595 150.619 524.38 150.619C530.165 150.619 534.855 145.929 534.855 140.144H513.905Z" fill="black"/>
<path d="M241.672 96V65.2559H253.802C256.123 65.2559 258.105 65.6712 259.746 66.5019C261.398 67.3225 262.654 68.4884 263.514 69.9996C264.385 71.5008 264.82 73.2672 264.82 75.2988C264.82 77.3404 264.38 79.0967 263.499 80.5679C262.619 82.029 261.343 83.1499 259.671 83.9305C258.01 84.7111 255.998 85.1015 253.636 85.1015H245.515V79.8774H252.586C253.827 79.8774 254.857 79.7072 255.678 79.367C256.499 79.0267 257.109 78.5163 257.51 77.8358C257.92 77.1552 258.125 76.3096 258.125 75.2988C258.125 74.278 257.92 73.4173 257.51 72.7167C257.109 72.0162 256.494 71.4858 255.663 71.1255C254.842 70.7552 253.807 70.5701 252.556 70.5701H248.172V96H241.672ZM258.275 82.009L265.916 96H258.74L251.265 82.009H258.275ZM288.404 65.2559H294.904V85.2216C294.904 87.4633 294.368 89.4248 293.298 91.1062C292.237 92.7875 290.751 94.0985 288.839 95.0392C286.928 95.97 284.701 96.4353 282.159 96.4353C279.607 96.4353 277.375 95.97 275.464 95.0392C273.552 94.0985 272.066 92.7875 271.005 91.1062C269.944 89.4248 269.414 87.4633 269.414 85.2216V65.2559H275.914V84.6661C275.914 85.837 276.169 86.8778 276.68 87.7886C277.2 88.6993 277.931 89.4148 278.871 89.9352C279.812 90.4557 280.908 90.7159 282.159 90.7159C283.42 90.7159 284.516 90.4557 285.446 89.9352C286.387 89.4148 287.113 88.6993 287.623 87.7886C288.144 86.8778 288.404 85.837 288.404 84.6661V65.2559ZM300.252 96V65.2559H306.752V90.6408H319.932V96H300.252ZM324.237 96V65.2559H344.953V70.6151H330.737V77.9408H343.887V83.3H330.737V90.6408H345.013V96H324.237ZM366.799 74.0978C366.679 72.8869 366.163 71.9461 365.253 71.2756C364.342 70.6051 363.106 70.2698 361.545 70.2698C360.484 70.2698 359.588 70.4199 358.858 70.7202C358.127 71.0104 357.567 71.4157 357.176 71.9361C356.796 72.4565 356.606 73.047 356.606 73.7075C356.586 74.258 356.701 74.7383 356.951 75.1487C357.211 75.559 357.567 75.9143 358.017 76.2145C358.467 76.5047 358.988 76.7599 359.578 76.9801C360.169 77.1903 360.799 77.3704 361.47 77.5205L364.232 78.181C365.573 78.4813 366.804 78.8816 367.925 79.382C369.046 79.8824 370.016 80.4978 370.837 81.2284C371.658 81.959 372.293 82.8197 372.744 83.8104C373.204 84.8012 373.439 85.9371 373.449 87.2181C373.439 89.0996 372.959 90.7309 372.008 92.112C371.067 93.483 369.706 94.5489 367.925 95.3095C366.153 96.06 364.017 96.4353 361.515 96.4353C359.033 96.4353 356.871 96.055 355.03 95.2944C353.198 94.5339 351.767 93.408 350.736 91.9168C349.716 90.4156 349.18 88.5592 349.13 86.3474H355.42C355.49 87.3782 355.785 88.2389 356.306 88.9295C356.836 89.61 357.542 90.1254 358.422 90.4757C359.313 90.8159 360.319 90.9861 361.44 90.9861C362.541 90.9861 363.496 90.8259 364.307 90.5057C365.128 90.1854 365.763 89.7401 366.213 89.1696C366.664 88.5992 366.889 87.9437 366.889 87.2031C366.889 86.5126 366.684 85.9321 366.274 85.4617C365.873 84.9914 365.283 84.5911 364.502 84.2608C363.732 83.9305 362.786 83.6303 361.665 83.3601L358.317 82.5194C355.725 81.8889 353.679 80.9032 352.177 79.5621C350.676 78.2211 349.931 76.4146 349.941 74.1429C349.931 72.2814 350.426 70.6551 351.427 69.264C352.438 67.8729 353.824 66.7871 355.585 66.0065C357.347 65.2259 359.348 64.8356 361.59 64.8356C363.872 64.8356 365.863 65.2259 367.565 66.0065C369.276 66.7871 370.607 67.8729 371.558 69.264C372.508 70.6551 372.999 72.2664 373.029 74.0978H366.799Z" fill="white"/>
<defs>
<linearGradient id="paint0_linear_5_1552" x1="45.4287" y1="62.9939" x2="45.4287" y2="7.97856" gradientUnits="userSpaceOnUse">
<stop stop-color="#BE6500"/>
<stop offset="0.5768" stop-color="#E5B84B"/>
<stop offset="1" stop-color="#FFF17F"/>
</linearGradient>
<linearGradient id="paint1_linear_5_1552" x1="45.4287" y1="154.652" x2="45.4287" y2="99.6366" gradientUnits="userSpaceOnUse">
<stop stop-color="#BE6500"/>
<stop offset="0.5768" stop-color="#E5B84B"/>
<stop offset="1" stop-color="#FFF17F"/>
</linearGradient>
<linearGradient id="paint2_linear_5_1552" x1="570.571" y1="62.9938" x2="570.571" y2="7.97849" gradientUnits="userSpaceOnUse">
<stop stop-color="#BE6500"/>
<stop offset="0.5768" stop-color="#E5B84B"/>
<stop offset="1" stop-color="#FFF17F"/>
</linearGradient>
<linearGradient id="paint3_linear_5_1552" x1="570.571" y1="154.652" x2="570.571" y2="99.6365" gradientUnits="userSpaceOnUse">
<stop stop-color="#BE6500"/>
<stop offset="0.5768" stop-color="#E5B84B"/>
<stop offset="1" stop-color="#FFF17F"/>
</linearGradient>
<linearGradient id="paint4_linear_5_1552" x1="524.254" y1="127.144" x2="524.254" y2="34.3855" gradientUnits="userSpaceOnUse">
<stop stop-color="#BE6500"/>
<stop offset="0.1734" stop-color="#C67711"/>
<stop offset="0.5225" stop-color="#DDA73C"/>
<stop offset="1" stop-color="#FFF17F"/>
</linearGradient>
<linearGradient id="paint5_linear_5_1552" x1="91.7454" y1="127.144" x2="91.7454" y2="34.3855" gradientUnits="userSpaceOnUse">
<stop stop-color="#BE6500"/>
<stop offset="0.1734" stop-color="#C67711"/>
<stop offset="0.5225" stop-color="#DDA73C"/>
<stop offset="1" stop-color="#FFF17F"/>
</linearGradient>
<linearGradient id="paint6_linear_5_1552" x1="308" y1="140.144" x2="308" y2="21.3862" gradientUnits="userSpaceOnUse">
<stop stop-color="#0C3446"/>
<stop offset="1" stop-color="#124156"/>
</linearGradient>
<linearGradient id="paint7_linear_5_1552" x1="85.1209" y1="80.7651" x2="530.88" y2="80.7651" gradientUnits="userSpaceOnUse">
<stop stop-color="#BE6500"/>
<stop offset="0.3145" stop-color="#E5B84B"/>
<stop offset="0.5452" stop-color="#FFF17F"/>
<stop offset="0.9944" stop-color="#DE9100"/>
</linearGradient>
<linearGradient id="paint8_linear_5_1552" x1="91.7451" y1="108.442" x2="91.7451" y2="53.0884" gradientUnits="userSpaceOnUse">
<stop stop-color="#BE6500"/>
<stop offset="0.1734" stop-color="#C67711"/>
<stop offset="0.5225" stop-color="#DDA73C"/>
<stop offset="1" stop-color="#FFF17F"/>
</linearGradient>
<linearGradient id="paint9_linear_5_1552" x1="91.7452" y1="96.1967" x2="91.7452" y2="65.3332" gradientUnits="userSpaceOnUse">
<stop stop-color="#960068"/>
<stop offset="0.2498" stop-color="#A80074"/>
<stop offset="0.7272" stop-color="#C50088"/>
<stop offset="1" stop-color="#D00090"/>
</linearGradient>
<linearGradient id="paint10_linear_5_1552" x1="524.254" y1="108.442" x2="524.254" y2="53.0884" gradientUnits="userSpaceOnUse">
<stop stop-color="#BE6500"/>
<stop offset="0.1734" stop-color="#C67711"/>
<stop offset="0.5225" stop-color="#DDA73C"/>
<stop offset="1" stop-color="#FFF17F"/>
</linearGradient>
<linearGradient id="paint11_linear_5_1552" x1="524.254" y1="96.1967" x2="524.254" y2="65.3332" gradientUnits="userSpaceOnUse">
<stop stop-color="#960068"/>
<stop offset="0.2498" stop-color="#A80074"/>
<stop offset="0.7272" stop-color="#C50088"/>
<stop offset="1" stop-color="#D00090"/>
</linearGradient>
<linearGradient id="paint12_linear_5_1552" x1="91.6192" y1="40.1727" x2="91.6192" y2="2.59998" gradientUnits="userSpaceOnUse">
<stop stop-color="#BE6500"/>
<stop offset="0.1734" stop-color="#C67711"/>
<stop offset="0.5225" stop-color="#DDA73C"/>
<stop offset="1" stop-color="#FFF17F"/>
</linearGradient>
<linearGradient id="paint13_linear_5_1552" x1="91.6194" y1="31.8611" x2="91.6194" y2="10.9115" gradientUnits="userSpaceOnUse">
<stop stop-color="#960068"/>
<stop offset="0.2498" stop-color="#A80074"/>
<stop offset="0.7272" stop-color="#C50088"/>
<stop offset="1" stop-color="#D00090"/>
</linearGradient>
<linearGradient id="paint14_linear_5_1552" x1="91.6192" y1="158.93" x2="91.6192" y2="121.357" gradientUnits="userSpaceOnUse">
<stop stop-color="#BE6500"/>
<stop offset="0.1734" stop-color="#C67711"/>
<stop offset="0.5225" stop-color="#DDA73C"/>
<stop offset="1" stop-color="#FFF17F"/>
</linearGradient>
<linearGradient id="paint15_linear_5_1552" x1="91.6194" y1="150.619" x2="91.6194" y2="129.669" gradientUnits="userSpaceOnUse">
<stop stop-color="#960068"/>
<stop offset="0.2498" stop-color="#A80074"/>
<stop offset="0.7272" stop-color="#C50088"/>
<stop offset="1" stop-color="#D00090"/>
</linearGradient>
<linearGradient id="paint16_linear_5_1552" x1="524.38" y1="40.1727" x2="524.38" y2="2.59998" gradientUnits="userSpaceOnUse">
<stop stop-color="#BE6500"/>
<stop offset="0.1734" stop-color="#C67711"/>
<stop offset="0.5225" stop-color="#DDA73C"/>
<stop offset="1" stop-color="#FFF17F"/>
</linearGradient>
<linearGradient id="paint17_linear_5_1552" x1="524.38" y1="31.8611" x2="524.38" y2="10.9115" gradientUnits="userSpaceOnUse">
<stop stop-color="#960068"/>
<stop offset="0.2498" stop-color="#A80074"/>
<stop offset="0.7272" stop-color="#C50088"/>
<stop offset="1" stop-color="#D00090"/>
</linearGradient>
<linearGradient id="paint18_linear_5_1552" x1="524.38" y1="158.93" x2="524.38" y2="121.357" gradientUnits="userSpaceOnUse">
<stop stop-color="#BE6500"/>
<stop offset="0.1734" stop-color="#C67711"/>
<stop offset="0.5225" stop-color="#DDA73C"/>
<stop offset="1" stop-color="#FFF17F"/>
</linearGradient>
<linearGradient id="paint19_linear_5_1552" x1="524.38" y1="150.619" x2="524.38" y2="129.669" gradientUnits="userSpaceOnUse">
<stop stop-color="#960068"/>
<stop offset="0.2498" stop-color="#A80074"/>
<stop offset="0.7272" stop-color="#C50088"/>
<stop offset="1" stop-color="#D00090"/>
</linearGradient>
</defs>
</svg>
